<?xml version="1.0" encoding="UTF-8"?>
<svg version="1.1" xmlns="http://www.w3.org/2000/svg" width="993" height="814">
<path d="M0 0 C3.91337527 3.2138341 7.60816425 6.60100767 11.265625 10.1015625 C12.01706787 10.8143335 12.76851074 11.52710449 13.54272461 12.26147461 C18.41392028 16.89753445 23.18697009 21.61586531 27.91015625 26.40234375 C29.80356002 28.26764506 31.74052446 30.00713751 33.765625 31.7265625 C37.72539779 35.10685634 41.3563085 38.77878255 45.015625 42.4765625 C49.1820846 46.68667852 53.36847914 50.74897471 57.89453125 54.57421875 C61.49299961 57.80157435 64.8408603 61.28281223 68.23852539 64.71899414 C71.08220186 67.58246706 73.93446427 70.36540934 77.015625 72.9765625 C81.33665955 76.63845619 85.2506759 80.68580202 89.22949219 84.70996094 C92.15811024 87.65904691 95.10586311 90.52180632 98.265625 93.2265625 C99.51908457 94.3058911 100.76857503 95.38983462 102.015625 96.4765625 C102.70785156 97.07654053 103.40007813 97.67651855 104.11328125 98.29467773 C110.63284801 104.33778144 114.13223544 110.74856606 117.765625 118.7890625 C118.35760198 120.06064138 118.95138891 121.33137903 119.546875 122.60131836 C121.08427323 125.89145248 122.5986863 129.19162783 124.10766602 132.49487305 C125.5896306 135.72937333 127.09181 138.95442614 128.59375 142.1796875 C130.26178387 145.76223657 131.92688835 149.34598121 133.57714844 152.93676758 C136.55259816 159.40406339 139.64813591 165.78492138 142.9140625 172.11108398 C144.015625 174.4765625 144.015625 174.4765625 144.015625 176.4765625 C179.59148875 167.77017209 215.01967795 158.51183481 250.44726562 149.22436523 C251.40056259 148.97447185 252.35385956 148.72457846 253.33604431 148.46711254 C257.86392273 147.28006602 262.3916227 146.09234761 266.91894531 144.90318298 C267.74350975 144.6867769 268.56807419 144.47037081 269.41762543 144.24740696 C270.93490145 143.84919852 272.45208679 143.45064429 273.96915436 143.05164242 C293.17234143 138.01391182 293.17234143 138.01391182 298.453125 140.73046875 C301.13251238 142.55620984 303.44746003 144.52665884 305.828125 146.7265625 C306.70597656 147.52964844 307.58382812 148.33273438 308.48828125 149.16015625 C309.32230469 149.92457031 310.15632812 150.68898437 311.015625 151.4765625 C314.71617709 154.773418 318.46662882 158.0114548 322.23828125 161.2265625 C328.78111602 166.80631223 335.24006202 172.44580381 341.58203125 178.25390625 C346.04051778 182.3259429 350.60060228 186.27498368 355.19921875 190.1875 C360.95534145 195.09006232 366.66339145 200.01710178 372.203125 205.1640625 C375.84975876 208.55180623 379.57179901 211.79554046 383.453125 214.9140625 C388.87470843 219.27796709 393.94404617 223.9607778 399.03125 228.703125 C403.64916261 233.00761764 408.42324107 237.11968655 413.2265625 241.21484375 C419.77217931 246.79975183 426.23602007 252.44210211 432.58203125 258.25390625 C437.05269 262.33706007 441.62704389 266.29498629 446.234375 270.22265625 C452.76897414 275.79631144 459.2221242 281.42716661 465.5546875 287.23046875 C469.62106 290.94184048 473.73484481 294.60596214 477.9921875 298.09765625 C478.61867188 298.61457031 479.24515625 299.13148438 479.890625 299.6640625 C480.44492187 300.11136719 480.99921875 300.55867188 481.5703125 301.01953125 C484.6262638 304.10026053 485.3243011 307.09356787 485.390625 311.3515625 C485.41898438 312.17398437 485.44734375 312.99640625 485.4765625 313.84375 C484.3743196 320.139612 478.95189175 325.01021764 474.828125 329.6640625 C470.20088213 334.94219301 465.67673458 340.27951514 461.2578125 345.734375 C458.71308905 348.84656291 456.11948119 351.91386124 453.515625 354.9765625 C450.16110404 358.92302374 446.84340538 362.89298485 443.578125 366.9140625 C439.62119082 371.77705674 435.55126558 376.53356453 431.45947266 381.28271484 C427.66399133 385.69688016 423.96284587 390.17989448 420.29296875 394.69921875 C417.27142556 398.38415393 414.18526549 402.01224571 411.09912109 405.64306641 C408.22004657 409.03629725 405.38351008 412.4593297 402.578125 415.9140625 C398.62119082 420.77705674 394.55126558 425.53356453 390.45947266 430.28271484 C386.66160999 434.69964968 382.95882459 439.18610247 379.28515625 443.70703125 C374.46873561 449.58455661 369.520682 455.35268164 364.59960938 461.14257812 C359.11291986 467.60063176 353.67785371 474.09153866 348.328125 480.6640625 C345.2912973 484.3575016 342.19601545 487.99954736 339.09936523 491.64282227 C336.2201718 495.03610359 333.38358263 498.45924036 330.578125 501.9140625 C326.47900053 506.95628264 322.25914259 511.88735656 318.00024414 516.79467773 C313.71344651 521.17673768 313.71344651 521.17673768 311.98988819 526.70688438 C312.09633498 527.58618425 312.20278177 528.46548412 312.31245422 529.37142944 C312.4299789 530.38728937 312.54750357 531.4031493 312.66858959 532.44979286 C312.81058442 533.57028212 312.95257925 534.69077137 313.09887695 535.84521484 C313.24077863 537.03578176 313.3826803 538.22634869 313.52888203 539.45299339 C313.92725074 542.76397748 314.33671364 546.07318793 314.75282335 549.38196468 C315.01627473 551.481741 315.27649655 553.58189313 315.53570175 555.68219757 C316.68132579 564.95831994 317.85430068 574.23084389 319.03673363 583.50233841 C319.69940562 588.69856557 320.35800716 593.89530419 321.01594543 599.09213257 C322.88421816 613.84492455 324.75629421 628.59722905 326.63549805 643.34863281 C327.68013437 651.54910795 328.72075861 659.75008202 329.7569769 667.95162523 C330.40898954 673.11045795 331.06586611 678.26863956 331.72644269 683.4263823 C332.13536937 686.62870123 332.53958068 689.83160237 332.94247627 693.03468513 C333.12917947 694.51150547 333.31778344 695.98808702 333.50849152 697.46439552 C336.26055889 718.79202742 336.26055889 718.79202742 333.015625 723.8515625 C332.644375 724.47804688 332.273125 725.10453125 331.890625 725.75 C326.65517072 730.57098082 319.09545037 731.06816556 312.32240295 731.6388855 C311.37609447 731.7277591 310.42978599 731.81663269 309.4548015 731.90819943 C306.30025073 732.20181987 303.14450487 732.47951581 299.98852539 732.75732422 C297.71929816 732.96539147 295.45016565 733.17449406 293.18112183 733.384552 C288.30087597 733.83436817 283.42007654 734.27737272 278.53874397 734.71523666 C270.80726275 735.40932659 263.07753725 736.12174026 255.3480072 736.83718872 C244.49840907 737.83989872 233.64833649 738.83723744 222.79760742 739.82763672 C222.10977747 739.89042219 221.42194752 739.95320766 220.71327423 740.01789571 C213.0512133 740.71712181 205.38898552 741.41449426 197.7265625 742.10974121 C194.95336741 742.36139039 192.18017363 742.6130541 189.40698242 742.86474609 C188.72272609 742.92684481 188.03846977 742.98894353 187.3334784 743.05292402 C175.87932189 744.09279958 164.42645697 745.14616316 152.97444528 746.20940602 C145.30493851 746.92065189 137.63423489 747.61635673 129.96223366 748.30014396 C125.1683474 748.73098126 120.3758653 749.17612023 115.58364487 749.62507248 C113.37728228 749.82891601 111.1703802 750.02702359 108.96292305 750.21865082 C96.08025803 751.34060374 84.25677998 753.25844461 72.015625 757.4765625 C70.94310266 757.8367299 69.87058031 758.1968973 68.76555729 758.56797886 C66.07340627 759.48309071 63.40143105 760.44285434 60.73046875 761.41796875 C59.73088638 761.77807037 58.73130402 762.138172 57.70143127 762.50918579 C54.45037365 763.68137288 51.20179723 764.86028254 47.953125 766.0390625 C45.62911642 766.87794249 43.30489273 767.71622679 40.98046875 768.55395508 C37.35001773 769.86249175 33.71971242 771.17141935 30.09005737 772.48216248 C21.62390629 775.53939731 13.15221147 778.58076028 4.67578125 781.609375 C2.91501755 782.23851051 2.91501755 782.23851051 1.11868286 782.88035583 C-4.75198042 784.97691307 -10.62384744 787.07004779 -16.49707031 789.15942383 C-26.64949069 792.77301454 -36.79734344 796.39515301 -46.9125061 800.11201477 C-51.06239185 801.63571327 -55.21674644 803.14699457 -59.37158203 804.65713501 C-61.29336693 805.3597004 -63.21289333 806.06848071 -65.12988281 806.7840271 C-87.27789135 815.04829415 -87.27789135 815.04829415 -94.90209961 811.61230469 C-96.7015889 810.44504089 -98.21698846 809.17578908 -99.796875 807.7265625 C-100.37671143 807.23430176 -100.95654785 806.74204102 -101.55395508 806.23486328 C-103.38555047 804.67182954 -105.18384446 803.07520067 -106.984375 801.4765625 C-108.18739718 800.4447521 -109.39311374 799.41607449 -110.6015625 798.390625 C-112.96815098 796.37957277 -115.32430485 794.35743531 -117.671875 792.32421875 C-122.36111538 788.27528169 -127.1713961 784.376858 -131.984375 780.4765625 C-138.42897017 775.2397392 -144.81456051 769.94274397 -151.14355469 764.56738281 C-156.36884688 760.1359629 -161.66793385 755.79811408 -166.984375 751.4765625 C-173.42811441 746.23866906 -179.81454162 740.94276 -186.14355469 735.56738281 C-191.36884688 731.1359629 -196.66793385 726.79811408 -201.984375 722.4765625 C-208.42811441 717.23866906 -214.81454162 711.94276 -221.14355469 706.56738281 C-226.36887332 702.13594049 -231.66908692 697.79956091 -236.984375 693.4765625 C-238.92244898 691.8939318 -240.85995355 690.31060353 -242.796875 688.7265625 C-243.64894531 688.03046875 -244.50101562 687.334375 -245.37890625 686.6171875 C-247.18587971 685.13259761 -248.94351883 683.58669375 -250.65792847 681.99610901 C-254.03015613 679.19792959 -257.60753936 678.05996806 -261.81298828 677.02319336 C-262.58084247 676.82010685 -263.34869665 676.61702034 -264.13981915 676.40777969 C-266.6910645 675.73706747 -269.24756516 675.08931769 -271.8046875 674.44140625 C-273.63071453 673.96620296 -275.45636476 673.48954976 -277.28166199 673.0115509 C-281.18475811 671.99260798 -285.090253 670.98367507 -288.99795532 669.98254395 C-295.13609159 668.40974072 -301.26800369 666.81359219 -307.39916992 665.21386719 C-318.90760537 662.2143512 -330.42182609 659.2374704 -341.93695831 656.26378632 C-354.89783616 652.91566797 -367.85625542 649.5582085 -380.80840683 646.17647839 C-385.75798117 644.88495753 -390.71036653 643.60506096 -395.66535854 642.33449078 C-398.72345109 641.5480401 -401.77906825 640.75229238 -404.83410072 639.95404625 C-406.23677521 639.58962353 -407.6404684 639.22909487 -409.04524803 638.87287331 C-410.95645635 638.38770451 -412.86372013 637.88707606 -414.77075195 637.38574219 C-416.36425224 636.97470245 -416.36425224 636.97470245 -417.98994446 636.55535889 C-422.77558659 634.83124695 -426.97613991 632.49303268 -429.30078125 627.84375 C-429.66550537 627.13379883 -430.03022949 626.42384766 -430.40600586 625.69238281 C-430.78249268 624.91991211 -431.15897949 624.14744141 -431.546875 623.3515625 C-431.96396729 622.5275293 -432.38105957 621.70349609 -432.81079102 620.85449219 C-433.72505749 619.04231224 -434.63187345 617.22635922 -435.53222656 615.40722656 C-437.04900285 612.34613332 -438.58885149 609.29746478 -440.1328125 606.25 C-445.7443991 595.14102339 -451.20964211 583.97045882 -456.53881836 572.72363281 C-460.73336758 563.91365655 -465.10486168 555.19550316 -469.484375 546.4765625 C-474.64645499 536.19949744 -479.73886252 525.90105534 -484.64990234 515.50097656 C-489.93662071 504.36788723 -495.51051057 493.37522063 -501.05639648 482.36962891 C-501.44056229 481.60552704 -501.82472809 480.84142517 -502.22053528 480.0541687 C-502.94776502 478.60790682 -503.67667867 477.16249007 -504.40751648 475.7180481 C-507.39711244 469.76884981 -508.99450027 465.11588053 -507.984375 458.4765625 C-506.85546875 456.32397461 -506.85546875 456.32397461 -505.359375 454.19140625 C-504.81273193 453.40991211 -504.26608887 452.62841797 -503.70288086 451.82324219 C-501.05699007 448.21018603 -498.3286119 444.67328129 -495.546875 441.1640625 C-490.44033926 434.6633441 -485.42501455 428.10420261 -480.484375 421.4765625 C-475.09135153 414.24792812 -469.60793254 407.09914991 -464.05175781 399.99536133 C-459.70804729 394.43252592 -455.4541776 388.80800547 -451.23266602 383.15209961 C-447.87288154 378.65281758 -444.47245153 374.18757756 -441.04052734 369.74291992 C-437.12601859 364.66994262 -433.24130379 359.57450037 -429.359375 354.4765625 C-428.67649414 353.57977783 -427.99361328 352.68299316 -427.29003906 351.7590332 C-425.88696866 349.91623595 -424.48397457 348.0733806 -423.08105469 346.23046875 C-420.37752638 342.67949072 -417.67275352 339.12946204 -414.96777344 335.57958984 C-413.65055945 333.85086808 -412.33350094 332.12202784 -411.01660156 330.39306641 C-407.51127812 325.7911393 -404.00341533 321.19117412 -400.4921875 316.59375 C-399.39197266 315.15225586 -399.39197266 315.15225586 -398.26953125 313.68164062 C-396.85881208 311.83341995 -395.44738496 309.98573937 -394.03515625 308.13867188 C-393.40222656 307.30916016 -392.76929688 306.47964844 -392.1171875 305.625 C-391.28018311 304.52937744 -391.28018311 304.52937744 -390.42626953 303.41162109 C-387.52943638 299.52399841 -386.67870983 297.29528004 -386.34645081 292.48278809 C-386.25548126 291.22819794 -386.16451172 289.97360779 -386.07078552 288.68099976 C-385.97874906 287.2866929 -385.88688165 285.89237487 -385.79516602 284.49804688 C-385.69212969 283.03039252 -385.58830957 281.56279302 -385.48376465 280.09524536 C-385.20091576 276.09318753 -384.92910357 272.09044593 -384.65916181 268.08749962 C-384.37202185 263.85773222 -384.07473077 259.62867828 -383.77854919 255.39953613 C-383.2154852 247.33754669 -382.66150197 239.27495967 -382.11075395 231.21212053 C-381.49553659 222.21142852 -380.87063811 213.21141867 -380.24468732 204.21146774 C-379.87939299 198.95649562 -379.51530958 193.70143946 -379.15101755 188.44639778 C-378.85290546 184.14702615 -378.55438878 179.84768335 -378.25499344 175.54840088 C-377.9073617 170.55577921 -377.56079372 165.5630848 -377.21533203 160.5703125 C-377.16036851 159.77627895 -377.10540499 158.98224541 -377.04877591 158.16415024 C-376.3574811 148.15614549 -375.70878133 138.14678449 -375.10888672 128.1328125 C-374.92359532 125.1394272 -374.73707576 122.14612162 -374.55000114 119.15284729 C-374.39356124 116.55877408 -374.25575079 113.96420462 -374.11927795 111.36901855 C-373.30229806 97.37942925 -373.30229806 97.37942925 -368.984375 91.4765625 C-364.7515907 89.01068616 -360.56939508 87.67996014 -355.83691406 86.48144531 C-355.13975784 86.30285225 -354.44260162 86.12425919 -353.72431946 85.94025421 C-351.40115577 85.3468618 -349.07563408 84.76331607 -346.75 84.1796875 C-345.07884349 83.75486667 -343.4078473 83.32941479 -341.73699951 82.90338135 C-338.13572756 81.98651321 -334.53339609 81.07397573 -330.93017578 80.16479492 C-325.1483334 78.70584805 -319.36892262 77.23742776 -313.58984375 75.76757812 C-306.49616361 73.96402824 -299.40191702 72.16273864 -292.30692291 70.36436462 C-279.62802301 67.1504712 -266.95332539 63.92037826 -254.28125 60.6796875 C-253.36020729 60.44415413 -252.43916458 60.20862076 -251.49021149 59.96595001 C-247.77590938 59.01604523 -244.06163779 58.06602128 -240.34741592 57.11580276 C-233.79080943 55.43841173 -227.23388624 53.76226361 -220.67675781 52.08691406 C-219.74228191 51.84815426 -218.80780602 51.60939445 -217.84501266 51.36339951 C-215.95845592 50.88138632 -214.07189866 50.39937516 -212.18534088 49.91736603 C-194.78685397 45.47193414 -177.38909163 41.02367124 -159.99221802 36.57192993 C-152.03097096 34.53474188 -144.06963001 32.4979306 -136.10743141 30.46446419 C-131.70954245 29.34128143 -127.31177403 28.21762726 -122.9140625 27.09375 C-122.03903957 26.87014172 -121.16401665 26.64653343 -120.26247787 26.41614914 C-107.58448723 23.1753522 -94.91274344 19.91089055 -82.24420166 16.63336182 C-74.91268789 14.73682239 -67.57951815 12.84672297 -60.24594498 10.95816422 C-54.22674378 9.40749809 -48.20977439 7.84852958 -42.19433784 6.2833271 C-38.48037214 5.31912265 -34.76436957 4.36296556 -31.0477562 3.40902328 C-29.32463309 2.9649929 -27.60236618 2.51762435 -25.8810463 2.06665421 C-23.51941861 1.44840369 -21.15499907 0.8422102 -18.78955078 0.23876953 C-17.7726844 -0.03206955 -17.7726844 -0.03206955 -16.73527527 -0.30838013 C-11.03975194 -1.73875395 -5.37728809 -2.74495073 0 0 Z " fill="#3A3A3A" transform="translate(507.984375,1.5234375)"/>
<path d="M0 0 C3.91337527 3.2138341 7.60816425 6.60100767 11.265625 10.1015625 C12.01706787 10.8143335 12.76851074 11.52710449 13.54272461 12.26147461 C18.41392028 16.89753445 23.18697009 21.61586531 27.91015625 26.40234375 C29.80356002 28.26764506 31.74052446 30.00713751 33.765625 31.7265625 C37.72539779 35.10685634 41.3563085 38.77878255 45.015625 42.4765625 C49.1820846 46.68667852 53.36847914 50.74897471 57.89453125 54.57421875 C61.49299961 57.80157435 64.8408603 61.28281223 68.23852539 64.71899414 C71.08220186 67.58246706 73.93446427 70.36540934 77.015625 72.9765625 C81.33665955 76.63845619 85.2506759 80.68580202 89.22949219 84.70996094 C92.15811024 87.65904691 95.10586311 90.52180632 98.265625 93.2265625 C99.51908457 94.3058911 100.76857503 95.38983462 102.015625 96.4765625 C102.70785156 97.07654053 103.40007813 97.67651855 104.11328125 98.29467773 C110.63284801 104.33778144 114.13223544 110.74856606 117.765625 118.7890625 C118.35760198 120.06064138 118.95138891 121.33137903 119.546875 122.60131836 C121.08427323 125.89145248 122.5986863 129.19162783 124.10766602 132.49487305 C125.5896306 135.72937333 127.09181 138.95442614 128.59375 142.1796875 C130.26178387 145.76223657 131.92688835 149.34598121 133.57714844 152.93676758 C136.55259816 159.40406339 139.64813591 165.78492138 142.9140625 172.11108398 C144.015625 174.4765625 144.015625 174.4765625 144.015625 176.4765625 C179.59148875 167.77017209 215.01967795 158.51183481 250.44726562 149.22436523 C251.40056259 148.97447185 252.35385956 148.72457846 253.33604431 148.46711254 C257.86392273 147.28006602 262.3916227 146.09234761 266.91894531 144.90318298 C267.74350975 144.6867769 268.56807419 144.47037081 269.41762543 144.24740696 C270.93490145 143.84919852 272.45208679 143.45064429 273.96915436 143.05164242 C293.17234143 138.01391182 293.17234143 138.01391182 298.453125 140.73046875 C301.13251238 142.55620984 303.44746003 144.52665884 305.828125 146.7265625 C306.70597656 147.52964844 307.58382812 148.33273438 308.48828125 149.16015625 C309.32230469 149.92457031 310.15632812 150.68898437 311.015625 151.4765625 C314.71617709 154.773418 318.46662882 158.0114548 322.23828125 161.2265625 C328.78111602 166.80631223 335.24006202 172.44580381 341.58203125 178.25390625 C346.04051778 182.3259429 350.60060228 186.27498368 355.19921875 190.1875 C360.95534145 195.09006232 366.66339145 200.01710178 372.203125 205.1640625 C375.84975876 208.55180623 379.57179901 211.79554046 383.453125 214.9140625 C388.87470843 219.27796709 393.94404617 223.9607778 399.03125 228.703125 C403.64916261 233.00761764 408.42324107 237.11968655 413.2265625 241.21484375 C419.77217931 246.79975183 426.23602007 252.44210211 432.58203125 258.25390625 C437.05269 262.33706007 441.62704389 266.29498629 446.234375 270.22265625 C452.76897414 275.79631144 459.2221242 281.42716661 465.5546875 287.23046875 C469.62106 290.94184048 473.73484481 294.60596214 477.9921875 298.09765625 C478.61867188 298.61457031 479.24515625 299.13148438 479.890625 299.6640625 C480.44492187 300.11136719 480.99921875 300.55867188 481.5703125 301.01953125 C484.6262638 304.10026053 485.3243011 307.09356787 485.390625 311.3515625 C485.41898438 312.17398437 485.44734375 312.99640625 485.4765625 313.84375 C484.3743196 320.139612 478.95189175 325.01021764 474.828125 329.6640625 C470.20088213 334.94219301 465.67673458 340.27951514 461.2578125 345.734375 C458.71308905 348.84656291 456.11948119 351.91386124 453.515625 354.9765625 C450.16110404 358.92302374 446.84340538 362.89298485 443.578125 366.9140625 C439.62119082 371.77705674 435.55126558 376.53356453 431.45947266 381.28271484 C427.66399133 385.69688016 423.96284587 390.17989448 420.29296875 394.69921875 C417.27142556 398.38415393 414.18526549 402.01224571 411.09912109 405.64306641 C408.22004657 409.03629725 405.38351008 412.4593297 402.578125 415.9140625 C398.62119082 420.77705674 394.55126558 425.53356453 390.45947266 430.28271484 C386.66160999 434.69964968 382.95882459 439.18610247 379.28515625 443.70703125 C374.46873561 449.58455661 369.520682 455.35268164 364.59960938 461.14257812 C359.11291986 467.60063176 353.67785371 474.09153866 348.328125 480.6640625 C345.2912973 484.3575016 342.19601545 487.99954736 339.09936523 491.64282227 C336.2201718 495.03610359 333.38358263 498.45924036 330.578125 501.9140625 C326.47900053 506.95628264 322.25914259 511.88735656 318.00024414 516.79467773 C313.71344651 521.17673768 313.71344651 521.17673768 311.98988819 526.70688438 C312.09633498 527.58618425 312.20278177 528.46548412 312.31245422 529.37142944 C312.4299789 530.38728937 312.54750357 531.4031493 312.66858959 532.44979286 C312.81058442 533.57028212 312.95257925 534.69077137 313.09887695 535.84521484 C313.24077863 537.03578176 313.3826803 538.22634869 313.52888203 539.45299339 C313.92725074 542.76397748 314.33671364 546.07318793 314.75282335 549.38196468 C315.01627473 551.481741 315.27649655 553.58189313 315.53570175 555.68219757 C316.68132579 564.95831994 317.85430068 574.23084389 319.03673363 583.50233841 C319.69940562 588.69856557 320.35800716 593.89530419 321.01594543 599.09213257 C322.88421816 613.84492455 324.75629421 628.59722905 326.63549805 643.34863281 C327.68013437 651.54910795 328.72075861 659.75008202 329.7569769 667.95162523 C330.40898954 673.11045795 331.06586611 678.26863956 331.72644269 683.4263823 C332.13536937 686.62870123 332.53958068 689.83160237 332.94247627 693.03468513 C333.12917947 694.51150547 333.31778344 695.98808702 333.50849152 697.46439552 C336.26055889 718.79202742 336.26055889 718.79202742 333.015625 723.8515625 C332.644375 724.47804688 332.273125 725.10453125 331.890625 725.75 C326.65517072 730.57098082 319.09545037 731.06816556 312.32240295 731.6388855 C311.37609447 731.7277591 310.42978599 731.81663269 309.4548015 731.90819943 C306.30025073 732.20181987 303.14450487 732.47951581 299.98852539 732.75732422 C297.71929816 732.96539147 295.45016565 733.17449406 293.18112183 733.384552 C288.30087597 733.83436817 283.42007654 734.27737272 278.53874397 734.71523666 C270.80726275 735.40932659 263.07753725 736.12174026 255.3480072 736.83718872 C244.49840907 737.83989872 233.64833649 738.83723744 222.79760742 739.82763672 C222.10977747 739.89042219 221.42194752 739.95320766 220.71327423 740.01789571 C213.0512133 740.71712181 205.38898552 741.41449426 197.7265625 742.10974121 C194.95336741 742.36139039 192.18017363 742.6130541 189.40698242 742.86474609 C188.72272609 742.92684481 188.03846977 742.98894353 187.3334784 743.05292402 C175.87932189 744.09279958 164.42645697 745.14616316 152.97444528 746.20940602 C145.30493851 746.92065189 137.63423489 747.61635673 129.96223366 748.30014396 C125.1683474 748.73098126 120.3758653 749.17612023 115.58364487 749.62507248 C113.37728228 749.82891601 111.1703802 750.02702359 108.96292305 750.21865082 C96.08025803 751.34060374 84.25677998 753.25844461 72.015625 757.4765625 C70.94310266 757.8367299 69.87058031 758.1968973 68.76555729 758.56797886 C66.07340627 759.48309071 63.40143105 760.44285434 60.73046875 761.41796875 C59.73088638 761.77807037 58.73130402 762.138172 57.70143127 762.50918579 C54.45037365 763.68137288 51.20179723 764.86028254 47.953125 766.0390625 C45.62911642 766.87794249 43.30489273 767.71622679 40.98046875 768.55395508 C37.35001773 769.86249175 33.71971242 771.17141935 30.09005737 772.48216248 C21.62390629 775.53939731 13.15221147 778.58076028 4.67578125 781.609375 C2.91501755 782.23851051 2.91501755 782.23851051 1.11868286 782.88035583 C-4.75198042 784.97691307 -10.62384744 787.07004779 -16.49707031 789.15942383 C-26.64949069 792.77301454 -36.79734344 796.39515301 -46.9125061 800.11201477 C-51.06239185 801.63571327 -55.21674644 803.14699457 -59.37158203 804.65713501 C-61.29336693 805.3597004 -63.21289333 806.06848071 -65.12988281 806.7840271 C-87.27789135 815.04829415 -87.27789135 815.04829415 -94.90209961 811.61230469 C-96.7015889 810.44504089 -98.21698846 809.17578908 -99.796875 807.7265625 C-100.37671143 807.23430176 -100.95654785 806.74204102 -101.55395508 806.23486328 C-103.38555047 804.67182954 -105.18384446 803.07520067 -106.984375 801.4765625 C-108.18739718 800.4447521 -109.39311374 799.41607449 -110.6015625 798.390625 C-112.96815098 796.37957277 -115.32430485 794.35743531 -117.671875 792.32421875 C-122.36111538 788.27528169 -127.1713961 784.376858 -131.984375 780.4765625 C-138.42897017 775.2397392 -144.81456051 769.94274397 -151.14355469 764.56738281 C-156.36884688 760.1359629 -161.66793385 755.79811408 -166.984375 751.4765625 C-173.42811441 746.23866906 -179.81454162 740.94276 -186.14355469 735.56738281 C-191.36884688 731.1359629 -196.66793385 726.79811408 -201.984375 722.4765625 C-208.42811441 717.23866906 -214.81454162 711.94276 -221.14355469 706.56738281 C-226.36887332 702.13594049 -231.66908692 697.79956091 -236.984375 693.4765625 C-238.92244898 691.8939318 -240.85995355 690.31060353 -242.796875 688.7265625 C-243.64894531 688.03046875 -244.50101562 687.334375 -245.37890625 686.6171875 C-247.18587971 685.13259761 -248.94351883 683.58669375 -250.65792847 681.99610901 C-254.03015613 679.19792959 -257.60753936 678.05996806 -261.81298828 677.02319336 C-262.58084247 676.82010685 -263.34869665 676.61702034 -264.13981915 676.40777969 C-266.6910645 675.73706747 -269.24756516 675.08931769 -271.8046875 674.44140625 C-273.63071453 673.96620296 -275.45636476 673.48954976 -277.28166199 673.0115509 C-281.18475811 671.99260798 -285.090253 670.98367507 -288.99795532 669.98254395 C-295.13609159 668.40974072 -301.26800369 666.81359219 -307.39916992 665.21386719 C-318.90760537 662.2143512 -330.42182609 659.2374704 -341.93695831 656.26378632 C-354.89783616 652.91566797 -367.85625542 649.5582085 -380.80840683 646.17647839 C-385.75798117 644.88495753 -390.71036653 643.60506096 -395.66535854 642.33449078 C-398.72345109 641.5480401 -401.77906825 640.75229238 -404.83410072 639.95404625 C-406.23677521 639.58962353 -407.6404684 639.22909487 -409.04524803 638.87287331 C-410.95645635 638.38770451 -412.86372013 637.88707606 -414.77075195 637.38574219 C-416.36425224 636.97470245 -416.36425224 636.97470245 -417.98994446 636.55535889 C-422.77558659 634.83124695 -426.97613991 632.49303268 -429.30078125 627.84375 C-429.66550537 627.13379883 -430.03022949 626.42384766 -430.40600586 625.69238281 C-430.78249268 624.91991211 -431.15897949 624.14744141 -431.546875 623.3515625 C-431.96396729 622.5275293 -432.38105957 621.70349609 -432.81079102 620.85449219 C-433.72505749 619.04231224 -434.63187345 617.22635922 -435.53222656 615.40722656 C-437.04900285 612.34613332 -438.58885149 609.29746478 -440.1328125 606.25 C-445.7443991 595.14102339 -451.20964211 583.97045882 -456.53881836 572.72363281 C-460.73336758 563.91365655 -465.10486168 555.19550316 -469.484375 546.4765625 C-474.64645499 536.19949744 -479.73886252 525.90105534 -484.64990234 515.50097656 C-489.93662071 504.36788723 -495.51051057 493.37522063 -501.05639648 482.36962891 C-501.44056229 481.60552704 -501.82472809 480.84142517 -502.22053528 480.0541687 C-502.94776502 478.60790682 -503.67667867 477.16249007 -504.40751648 475.7180481 C-507.39711244 469.76884981 -508.99450027 465.11588053 -507.984375 458.4765625 C-506.85546875 456.32397461 -506.85546875 456.32397461 -505.359375 454.19140625 C-504.81273193 453.40991211 -504.26608887 452.62841797 -503.70288086 451.82324219 C-501.05699007 448.21018603 -498.3286119 444.67328129 -495.546875 441.1640625 C-490.44033926 434.6633441 -485.42501455 428.10420261 -480.484375 421.4765625 C-475.09135153 414.24792812 -469.60793254 407.09914991 -464.05175781 399.99536133 C-459.70804729 394.43252592 -455.4541776 388.80800547 -451.23266602 383.15209961 C-447.87288154 378.65281758 -444.47245153 374.18757756 -441.04052734 369.74291992 C-437.12601859 364.66994262 -433.24130379 359.57450037 -429.359375 354.4765625 C-428.67649414 353.57977783 -427.99361328 352.68299316 -427.29003906 351.7590332 C-425.88696866 349.91623595 -424.48397457 348.0733806 -423.08105469 346.23046875 C-420.37752638 342.67949072 -417.67275352 339.12946204 -414.96777344 335.57958984 C-413.65055945 333.85086808 -412.33350094 332.12202784 -411.01660156 330.39306641 C-407.51127812 325.7911393 -404.00341533 321.19117412 -400.4921875 316.59375 C-399.39197266 315.15225586 -399.39197266 315.15225586 -398.26953125 313.68164062 C-396.85881208 311.83341995 -395.44738496 309.98573937 -394.03515625 308.13867188 C-393.40222656 307.30916016 -392.76929688 306.47964844 -392.1171875 305.625 C-391.28018311 304.52937744 -391.28018311 304.52937744 -390.42626953 303.41162109 C-387.52943638 299.52399841 -386.67870983 297.29528004 -386.34645081 292.48278809 C-386.25548126 291.22819794 -386.16451172 289.97360779 -386.07078552 288.68099976 C-385.97874906 287.2866929 -385.88688165 285.89237487 -385.79516602 284.49804688 C-385.69212969 283.03039252 -385.58830957 281.56279302 -385.48376465 280.09524536 C-385.20091576 276.09318753 -384.92910357 272.09044593 -384.65916181 268.08749962 C-384.37202185 263.85773222 -384.07473077 259.62867828 -383.77854919 255.39953613 C-383.2154852 247.33754669 -382.66150197 239.27495967 -382.11075395 231.21212053 C-381.49553659 222.21142852 -380.87063811 213.21141867 -380.24468732 204.21146774 C-379.87939299 198.95649562 -379.51530958 193.70143946 -379.15101755 188.44639778 C-378.85290546 184.14702615 -378.55438878 179.84768335 -378.25499344 175.54840088 C-377.9073617 170.55577921 -377.56079372 165.5630848 -377.21533203 160.5703125 C-377.16036851 159.77627895 -377.10540499 158.98224541 -377.04877591 158.16415024 C-376.3574811 148.15614549 -375.70878133 138.14678449 -375.10888672 128.1328125 C-374.92359532 125.1394272 -374.73707576 122.14612162 -374.55000114 119.15284729 C-374.39356124 116.55877408 -374.25575079 113.96420462 -374.11927795 111.36901855 C-373.30229806 97.37942925 -373.30229806 97.37942925 -368.984375 91.4765625 C-364.7515907 89.01068616 -360.56939508 87.67996014 -355.83691406 86.48144531 C-355.13975784 86.30285225 -354.44260162 86.12425919 -353.72431946 85.94025421 C-351.40115577 85.3468618 -349.07563408 84.76331607 -346.75 84.1796875 C-345.07884349 83.75486667 -343.4078473 83.32941479 -341.73699951 82.90338135 C-338.13572756 81.98651321 -334.53339609 81.07397573 -330.93017578 80.16479492 C-325.1483334 78.70584805 -319.36892262 77.23742776 -313.58984375 75.76757812 C-306.49616361 73.96402824 -299.40191702 72.16273864 -292.30692291 70.36436462 C-279.62802301 67.1504712 -266.95332539 63.92037826 -254.28125 60.6796875 C-253.36020729 60.44415413 -252.43916458 60.20862076 -251.49021149 59.96595001 C-247.77590938 59.01604523 -244.06163779 58.06602128 -240.34741592 57.11580276 C-233.79080943 55.43841173 -227.23388624 53.76226361 -220.67675781 52.08691406 C-219.74228191 51.84815426 -218.80780602 51.60939445 -217.84501266 51.36339951 C-215.95845592 50.88138632 -214.07189866 50.39937516 -212.18534088 49.91736603 C-194.78685397 45.47193414 -177.38909163 41.02367124 -159.99221802 36.57192993 C-152.03097096 34.53474188 -144.06963001 32.4979306 -136.10743141 30.46446419 C-131.70954245 29.34128143 -127.31177403 28.21762726 -122.9140625 27.09375 C-122.03903957 26.87014172 -121.16401665 26.64653343 -120.26247787 26.41614914 C-107.58448723 23.1753522 -94.91274344 19.91089055 -82.24420166 16.63336182 C-74.91268789 14.73682239 -67.57951815 12.84672297 -60.24594498 10.95816422 C-54.22674378 9.40749809 -48.20977439 7.84852958 -42.19433784 6.2833271 C-38.48037214 5.31912265 -34.76436957 4.36296556 -31.0477562 3.40902328 C-29.32463309 2.9649929 -27.60236618 2.51762435 -25.8810463 2.06665421 C-23.51941861 1.44840369 -21.15499907 0.8422102 -18.78955078 0.23876953 C-17.7726844 -0.03206955 -17.7726844 -0.03206955 -16.73527527 -0.30838013 C-11.03975194 -1.73875395 -5.37728809 -2.74495073 0 0 Z M-26.859375 31.1015625 C-35.11066621 33.44558394 -43.3833371 35.58005085 -51.734375 37.5390625 C-59.57789622 39.3869126 -67.35267111 41.36313786 -75.09863281 43.58227539 C-82.59220175 45.70218882 -90.16781139 47.45816366 -97.74609375 49.24609375 C-103.86542567 50.69952825 -109.9382848 52.24431854 -115.984375 53.9765625 C-123.10522757 56.01673283 -130.27528443 57.77570478 -137.484375 59.4765625 C-144.60996526 61.15795925 -151.69751785 62.89213001 -158.734375 64.9140625 C-167.85675605 67.5326822 -177.08313574 69.69097942 -186.31445312 71.88818359 C-193.69259736 73.65390154 -201.01022892 75.53798461 -208.30078125 77.6328125 C-215.72579869 79.74047051 -223.23629405 81.47430276 -230.74707031 83.24633789 C-236.86608068 84.69967275 -242.93860804 86.24441115 -248.984375 87.9765625 C-257.17921773 90.32443796 -265.45040427 92.28890713 -273.74609375 94.24609375 C-279.86542567 95.69952825 -285.9382848 97.24431854 -291.984375 98.9765625 C-300.16110426 101.31924833 -308.41366598 103.28059322 -316.69116211 105.23291016 C-325.85947814 107.41021721 -334.93162336 109.86363546 -343.984375 112.4765625 C-343.984375 113.1365625 -343.984375 113.7965625 -343.984375 114.4765625 C-342.635866 115.77489667 -342.635866 115.77489667 -340.828125 117.05859375 C-340.14363281 117.57164063 -339.45914063 118.0846875 -338.75390625 118.61328125 C-338.00496094 119.16628906 -337.25601563 119.71929687 -336.484375 120.2890625 C-330.55288542 124.74016356 -324.71067703 129.26429312 -318.984375 133.9765625 C-313.56635545 138.42354124 -308.07096202 142.74335482 -302.484375 146.9765625 C-296.12483204 151.79565375 -289.89975982 156.75252012 -283.72705078 161.80810547 C-278.62281126 165.98084976 -273.43180446 170.01976986 -268.19140625 174.01953125 C-263.00006589 177.9844953 -257.88107934 182.04243584 -252.75048828 186.08544922 C-250.41272511 187.92683359 -248.07267899 189.76530249 -245.73242188 191.60351562 C-243.98149923 192.97882135 -242.23098458 194.35464527 -240.48046875 195.73046875 C-238.16157376 197.55259628 -235.84114985 199.37275044 -233.51953125 201.19140625 C-228.16742402 205.38656592 -222.82795175 209.5948483 -217.52929688 213.85742188 C-211.59766089 218.62892716 -205.61101368 223.31194383 -199.546875 227.9140625 C-193.16873762 232.7558761 -186.92214079 237.73428181 -180.72729492 242.80786133 C-175.62302255 246.98074794 -170.43189535 251.01970049 -165.19140625 255.01953125 C-160.00006589 258.9844953 -154.88107934 263.04243584 -149.75048828 267.08544922 C-146.83066452 269.38530487 -143.90735607 271.68072195 -140.984375 273.9765625 C-139.81769139 274.8932076 -138.65102473 275.80987427 -137.484375 276.7265625 C-136.906875 277.1803125 -136.329375 277.6340625 -135.734375 278.1015625 C-133.984375 279.4765625 -132.234375 280.8515625 -130.484375 282.2265625 C-129.90695557 282.68023193 -129.32953613 283.13390137 -128.73461914 283.60131836 C-127.5670709 284.51871259 -126.39959051 285.43619317 -125.23217773 286.35375977 C-122.3295471 288.63500495 -119.42578226 290.91477464 -116.51953125 293.19140625 C-111.16660337 297.38720918 -105.82633799 301.59616699 -100.52685547 305.859375 C-93.69514165 311.35495737 -86.78481677 316.73324458 -79.79370117 322.02490234 C-75.76775646 325.0790673 -71.8404018 328.21006866 -67.984375 331.4765625 C-75.74466186 331.6505366 -83.3482204 331.10939815 -91.0703125 330.375 C-92.96712265 330.1998436 -92.96712265 330.1998436 -94.9022522 330.02114868 C-98.33799594 329.70347172 -101.77314394 329.37974057 -105.20819092 329.05462646 C-108.114237 328.78030627 -111.02060883 328.50952039 -113.92696762 328.23853683 C-134.85756587 326.28548876 -155.77599359 324.21946321 -176.69052124 322.10119629 C-197.15924358 320.02935546 -217.63878969 318.10277302 -238.12771606 316.24237061 C-255.34298132 314.67731051 -272.54937692 313.0393183 -289.75 311.3203125 C-291.61228935 311.13451049 -293.47457878 310.9487093 -295.33686829 310.76290894 C-303.5548648 309.94217519 -311.77245447 309.11776392 -319.98892403 308.2818718 C-323.38275175 307.93751925 -326.77696539 307.59708549 -330.17127228 307.25749207 C-331.74916073 307.0986707 -333.32687155 306.93807258 -334.9043808 306.77552795 C-342.95338575 305.94657739 -350.8841579 305.28051326 -358.984375 305.4765625 C-359.50644531 306.61609375 -360.02851563 307.755625 -360.56640625 308.9296875 C-363.02749871 313.84538733 -366.23745831 317.95730842 -369.671875 322.2265625 C-370.93956563 323.82882327 -372.20649405 325.43168739 -373.47265625 327.03515625 C-374.08189941 327.80327637 -374.69114258 328.57139648 -375.31884766 329.36279297 C-377.37578071 331.97330695 -379.37575863 334.62249891 -381.359375 337.2890625 C-385.38553807 342.69200961 -389.461108 348.05605441 -393.546875 353.4140625 C-394.23378418 354.31487549 -394.92069336 355.21568848 -395.62841797 356.14379883 C-397.04269334 357.9981328 -398.45708258 359.85237992 -399.87158203 361.70654297 C-403.24435261 366.12848137 -406.61426632 370.55259526 -409.984375 374.9765625 C-411.31769361 376.72657372 -412.65102697 378.4765737 -413.984375 380.2265625 C-414.644375 381.0928125 -415.304375 381.9590625 -415.984375 382.8515625 C-421.984375 390.7265625 -421.984375 390.7265625 -423.98461914 393.35180664 C-425.31723676 395.10091811 -426.64975638 396.85010425 -427.98217773 398.59936523 C-431.32565971 402.9885789 -434.67086238 407.37646072 -438.01953125 411.76171875 C-445.40593213 421.43900289 -452.76018371 431.13789282 -460.02563477 440.90649414 C-462.57460434 444.32229099 -465.12856171 447.68757257 -467.91015625 450.91796875 C-470.19428965 453.18653852 -470.19428965 453.18653852 -469.984375 455.4765625 C-470.644375 455.4765625 -471.304375 455.4765625 -471.984375 455.4765625 C-473.61617656 457.38379828 -473.61617656 457.38379828 -475.171875 459.7890625 C-475.72230469 460.58957031 -476.27273438 461.39007813 -476.83984375 462.21484375 C-477.21753906 462.96121094 -477.59523438 463.70757812 -477.984375 464.4765625 C-477.489375 465.9615625 -477.489375 465.9615625 -476.984375 467.4765625 C-474.58696761 468.28507288 -472.33969199 468.88884935 -469.87890625 469.421875 C-468.40695219 469.76416882 -466.93511231 470.10695398 -465.46337891 470.45019531 C-464.71332581 470.62071411 -463.96327271 470.79123291 -463.19049072 470.96691895 C-459.90288235 471.72640241 -456.63936942 472.56726572 -453.37109375 473.40625 C-439.68954518 476.86886414 -426.0035319 480.19439247 -412.2097168 483.18701172 C-402.7332825 485.26283528 -393.33474478 487.61141273 -383.93310547 489.99707031 C-374.81445629 492.30773732 -365.67834204 494.48216202 -356.484375 496.4765625 C-345.909897 498.77043019 -335.41940346 501.33618156 -324.93310547 503.99707031 C-315.81445629 506.30773732 -306.67834204 508.48216202 -297.484375 510.4765625 C-286.909897 512.77043019 -276.41940346 515.33618156 -265.93310547 517.99707031 C-255.73235977 520.58194073 -245.50044714 522.95522567 -235.21582031 525.18530273 C-224.96764445 527.42983166 -214.80294179 529.97382552 -204.64501953 532.5925293 C-198.56984738 534.14903192 -192.51677623 535.61987043 -186.3359375 536.7109375 C-174.32540875 538.84318249 -166.51010044 541.58908567 -157.58935547 550.00488281 C-154.86157518 552.50610879 -151.91551016 554.72109665 -148.984375 556.9765625 C-147.8166759 557.89191364 -146.65000699 558.8085805 -145.484375 559.7265625 C-144.618125 560.4071875 -144.618125 560.4071875 -143.734375 561.1015625 C-127.984375 573.4765625 -112.234375 585.8515625 -96.484375 598.2265625 C-95.90695557 598.68023193 -95.32953613 599.13390137 -94.73461914 599.60131836 C-93.5670709 600.51871259 -92.39959051 601.43619317 -91.23217773 602.35375977 C-88.3295471 604.63500495 -85.42578226 606.91477464 -82.51953125 609.19140625 C-77.16742402 613.38656592 -71.82795175 617.5948483 -66.52929688 621.85742188 C-60.59766149 626.62892668 -54.61102505 631.31195978 -48.546875 635.9140625 C-42.25975717 640.68654678 -36.10595529 645.59484424 -30.00415039 650.60131836 C-25.2392521 654.49572326 -20.3890111 658.26011693 -15.484375 661.9765625 C-9.21591215 666.72643599 -3.0836046 671.61309206 2.99609375 676.6015625 C7.76095552 680.49583066 12.61108792 684.26017466 17.515625 687.9765625 C23.87516796 692.79565375 30.10024018 697.75252012 36.27294922 702.80810547 C41.36679214 706.97235048 46.53017429 711.02133641 51.796875 714.96484375 C54.15250996 716.75550345 56.35586112 718.656234 58.546875 720.64453125 C64.38029055 726.23506136 64.38029055 726.23506136 71.74609375 728.5703125 C74.37305452 727.84750814 74.37305452 727.84750814 76.87207031 726.56713867 C80.015625 725.4765625 80.015625 725.4765625 83.45922852 725.60864258 C93.18657722 725.94839674 98.39953697 723.02371368 105.51612854 716.43226624 C110.16605477 711.89855931 114.65202935 707.21366592 119.09875488 702.48168945 C121.66300187 699.77066466 124.27328524 697.1047628 126.87890625 694.43359375 C136.90398594 684.14935125 136.90398594 684.14935125 146.49365234 673.46337891 C150.46346786 668.87670164 154.7542497 664.62487114 159.06079102 660.35623169 C160.55276743 658.87724341 162.04140053 657.39495748 163.52929688 655.91186523 C167.22230654 652.23208863 170.92079612 648.55783623 174.61914062 644.88342285 C177.75632804 641.76610621 180.89136102 638.64665162 184.02368164 635.52444458 C185.47660408 634.07791181 186.93254781 632.63447083 188.38867188 631.19116211 C192.21072273 627.383173 195.98878706 623.58707231 199.50195312 619.49023438 C203.51313423 614.8151377 207.87335425 610.50605303 212.24598694 606.17103577 C213.77156477 604.65843918 215.29380586 603.14255048 216.81530762 601.62585449 C220.59179482 597.86260449 224.37376011 594.10487582 228.15557861 590.34698486 C231.36322368 587.15920582 234.56871795 583.96929208 237.77149963 580.77662659 C239.25766189 579.29685694 240.74684496 577.82017685 242.23620605 576.34362793 C246.8159499 571.78036594 251.21886299 567.16247447 255.42495728 562.25421143 C257.95809973 559.42330093 260.76961857 556.94252198 263.60546875 554.421875 C265.43537537 552.72890379 267.25740414 551.02770812 269.0793457 549.32617188 C270.32649755 548.17830469 271.58837811 547.0462333 272.86450195 545.93066406 C281.25433362 538.80707726 281.25433362 538.80707726 284.68798828 528.79199219 C284.71408438 525.65204433 284.43622059 522.61965551 284.08422852 519.50341797 C283.70953439 515.10688463 285.20459667 512.88572834 288.015625 509.4765625 C288.48186279 508.88528564 288.94810059 508.29400879 289.4284668 507.68481445 C289.85297119 507.19972412 290.27747559 506.71463379 290.71484375 506.21484375 C291.19695313 505.65925781 291.6790625 505.10367187 292.17578125 504.53125 C292.67980469 503.95632813 293.18382812 503.38140625 293.703125 502.7890625 C297.36761844 498.56422176 300.99400224 494.32225786 304.515625 489.9765625 C307.94770513 485.7486377 311.46113671 481.6012836 315.015625 477.4765625 C319.33496772 472.46341477 323.56659777 467.39118735 327.73828125 462.25390625 C330.75982444 458.56897107 333.84598451 454.94087929 336.93212891 451.31005859 C339.81120343 447.91682775 342.64773992 444.4937953 345.453125 441.0390625 C349.41005918 436.17606826 353.47998442 431.41956047 357.57177734 426.67041016 C361.36964001 422.25347532 365.07242541 417.76702253 368.74609375 413.24609375 C373.56251439 407.36856839 378.510568 401.60044336 383.43164062 395.81054688 C388.91833014 389.35249324 394.35339629 382.86158634 399.703125 376.2890625 C402.7399527 372.5956234 405.83523455 368.95357764 408.93188477 365.31030273 C411.8110782 361.91702141 414.64766737 358.49388464 417.453125 355.0390625 C420.90836957 350.79263492 424.44269076 346.62367826 428.015625 342.4765625 C433.11524552 336.55535429 438.09299338 330.54604378 443.015625 324.4765625 C444.70120247 322.41248317 446.38976091 320.35086538 448.078125 318.2890625 C448.83222656 317.36738281 449.58632813 316.44570313 450.36328125 315.49609375 C450.90855469 314.82964844 451.45382812 314.16320312 452.015625 313.4765625 C447.87648898 308.21874107 443.36694371 304.22367224 438.140625 300.0625 C434.61074522 297.19842235 431.32036501 294.09480274 428.015625 290.9765625 C423.95730063 287.15405968 419.87260394 283.46214565 415.515625 279.9765625 C411.1585908 276.49093514 407.07440967 272.79862583 403.015625 268.9765625 C398.10602202 264.35361292 393.07083957 260.01055071 387.8046875 255.79296875 C383.37828337 252.11669753 379.20761388 248.17229878 375 244.25 C370.38208739 239.94550736 365.60800893 235.83343845 360.8046875 231.73828125 C354.25907069 226.15337317 347.79522993 220.51102289 341.44921875 214.69921875 C336.97856 210.61606493 332.40420611 206.65813871 327.796875 202.73046875 C321.25946718 197.15441791 314.80327613 191.5214927 308.46875 185.71484375 C305.67674078 183.16735763 302.85199839 180.66638507 299.96875 178.22265625 C298.015625 176.4765625 298.015625 176.4765625 295.875 174.19921875 C295.13765625 173.44511719 294.4003125 172.69101563 293.640625 171.9140625 C292.99351562 171.21152344 292.34640625 170.50898438 291.6796875 169.78515625 C287.31033962 167.63892232 283.56104713 169.25246356 279.015625 170.4765625 C278.0575293 170.71479736 277.09943359 170.95303223 276.11230469 171.19848633 C272.92740246 171.99573828 269.75268641 172.82661864 266.578125 173.6640625 C264.17972107 174.29179495 261.78128257 174.91939533 259.3828125 175.546875 C258.16303711 175.86688477 256.94326172 176.18689453 255.68652344 176.51660156 C252.13403923 177.4455965 248.57934176 178.36544165 245.0234375 179.28125 C234.93762879 181.87972056 224.86341377 184.50148229 214.828125 187.2890625 C202.42733052 190.7252403 189.92882093 193.78263192 177.4387207 196.87426758 C166.3319311 199.62609903 155.22752104 202.38787893 144.23486328 205.5715332 C139.18415256 206.9914471 135.04369135 207.21042608 130.00244141 205.38623047 C126.32824022 203.03707225 125.00056716 200.46710756 123.2890625 196.609375 C122.60421911 195.15639731 121.91897743 193.70360731 121.23339844 192.25097656 C120.69652405 191.08870544 120.69652405 191.08870544 120.14880371 189.9029541 C118.58142353 186.54683908 116.93736711 183.23054692 115.29382324 179.91122437 C113.97328803 177.24306334 112.66256812 174.57028534 111.35449219 171.89599609 C109.50886127 168.12286822 107.6569899 164.35288799 105.80175781 160.58447266 C101.57137818 151.96500539 97.46001449 143.37499821 93.84277344 134.47924805 C88.44272976 121.30593208 79.56845197 112.87626715 68.94042969 103.68115234 C64.61928861 99.93347691 60.51249442 96.06718565 56.515625 91.9765625 C53.10719756 88.52523723 49.7191305 85.11512648 46.015625 81.9765625 C41.69143794 78.3119972 37.77480209 74.26135384 33.79296875 70.234375 C30.94920923 67.37082133 28.09687416 64.5877906 25.015625 61.9765625 C20.69380231 58.3140009 16.7791312 54.26583061 12.79956055 50.2409668 C9.3199688 46.73708118 5.7682746 43.40994698 1.9765625 40.2421875 C-1.38905451 37.21179131 -4.37464589 33.78958785 -7.39453125 30.41796875 C-13.25975579 26.02126197 -20.44427479 29.21439409 -26.859375 31.1015625 Z " fill="#000000" transform="translate(507.984375,1.5234375)"/>
<path d="M0 0 C3.01167642 2.18218604 5.43520722 4.8237321 7.9375 7.5625 C9.27735043 8.98292339 10.61979279 10.40090645 11.96484375 11.81640625 C12.62919434 12.51975098 13.29354492 13.2230957 13.97802734 13.94775391 C16.55806471 16.56642018 19.3049648 18.94248788 22.09594727 21.33178711 C25.04233521 23.91322945 27.76376615 26.69958288 30.5 29.5 C33.90842744 32.95132527 37.2964945 36.36143602 41 39.5 C45.32418706 43.1645653 49.24082291 47.21520866 53.22265625 51.2421875 C56.06641577 54.10574117 58.91875084 56.8887719 62 59.5 C66.32261082 63.16322951 70.23793677 67.2122242 74.21826172 71.23779297 C77.10444621 74.14410778 80.00459491 76.96687715 83.125 79.625 C84.42091759 80.74510062 85.71174612 81.87109358 87 83 C87.82902832 83.72010254 88.65805664 84.44020508 89.51220703 85.18212891 C97.39254657 92.48507206 101.50237353 99.97940992 105.75 109.75 C106.42294244 111.24525871 107.09878123 112.73921692 107.77734375 114.23193359 C108.8214866 116.530429 109.86356255 118.82965267 110.8963623 121.13327026 C114.44135514 129.04011742 118.20122046 136.83761623 122 144.625 C122.47329239 145.59566406 122.47329239 145.59566406 122.95614624 146.5859375 C123.26669952 147.22273437 123.57725281 147.85953125 123.8972168 148.515625 C124.20081619 149.13818176 124.50441559 149.76073853 124.81721497 150.40216064 C125.68869681 152.18858954 126.56089016 153.97467129 127.43310547 155.76074219 C128.81763633 158.62299764 130.16960432 161.49690647 131.50390625 164.3828125 C131.86162109 165.14126465 132.21933594 165.8997168 132.58789062 166.68115234 C133.46719873 168.54769966 134.33030329 170.42185945 135.19140625 172.296875 C137.47274115 175.70655913 139.12242142 176.69056799 143 178 C149.2460711 178.54313662 154.6094567 177.35979328 160.625 175.75 C161.42550781 175.54503906 162.22601562 175.34007812 163.05078125 175.12890625 C167.86012646 173.88315749 172.63243971 172.52909696 177.40234375 171.140625 C186.52030546 168.52100442 195.72817463 166.27288867 204.9375 164 C219.19669188 160.47354753 233.40879997 156.83079514 247.56835938 152.9206543 C257.1620689 150.27467839 266.78035533 147.7263251 276.41357422 145.2286377 C277.7943298 144.8705234 279.17486749 144.51156787 280.55517578 144.1517334 C282.50481747 143.64396983 284.45551805 143.14027748 286.40625 142.63671875 C287.53353516 142.34498779 288.66082031 142.05325684 289.82226562 141.75268555 C290.87091797 141.50429932 291.91957031 141.25591309 293 141 C294.05421143 140.74661865 295.10842285 140.4932373 296.19458008 140.23217773 C299 140 299 140 300.88354492 141.02880859 C301.41052979 141.56328613 301.93751465 142.09776367 302.48046875 142.6484375 C303.08133301 143.23705566 303.68219727 143.82567383 304.30126953 144.43212891 C304.92372559 145.07327637 305.54618164 145.71442383 306.1875 146.375 C307.51956938 147.68490625 308.85421633 148.99219638 310.19140625 150.296875 C310.84125488 150.93689453 311.49110352 151.57691406 312.16064453 152.23632812 C314.53697973 154.51488473 317.04618455 156.58012431 319.625 158.625 C324.99514427 162.91471286 329.99180673 167.54345631 335.015625 172.2265625 C339.63353761 176.53105514 344.40761607 180.64312405 349.2109375 184.73828125 C355.75655431 190.32318933 362.22039507 195.96553961 368.56640625 201.77734375 C373.037065 205.86049757 377.61141889 209.81842379 382.21875 213.74609375 C388.76251142 219.32756386 395.22308967 224.96800738 401.56640625 230.77734375 C406.037065 234.86049757 410.61141889 238.81842379 415.21875 242.74609375 C421.76251142 248.32756386 428.22308967 253.96800738 434.56640625 259.77734375 C439.12384932 263.93975965 443.78352555 267.97625686 448.5 271.95703125 C449.12672607 272.48828613 449.75345215 273.01954102 450.39916992 273.56689453 C451.65141821 274.62755858 452.90668245 275.68467467 454.1652832 276.73779297 C454.74624756 277.23037598 455.32721191 277.72295898 455.92578125 278.23046875 C456.44567627 278.66770264 456.96557129 279.10493652 457.5012207 279.55541992 C459.23419683 281.22572775 460.57474266 283.06457894 462 285 C438.08778251 287.71065837 414.16280435 290.24723892 390.21517181 292.62392044 C387.62916286 292.88079476 385.04323867 293.13850763 382.45733643 293.39645386 C357.07134114 295.92825559 331.68118301 298.41271496 306.27807617 300.76757812 C293.4111453 301.96663291 280.56041361 303.2468077 267.71744728 304.67671585 C232.33027298 308.60985903 197.62379189 311.02767911 161.96691895 310.10076904 C157.73299365 309.99321741 153.49892506 309.89757934 149.26464844 309.80517578 C135.94074126 309.51262098 122.61730455 309.20448089 109.29467773 308.8581543 C80.1632068 308.10177653 51.03016208 307.49160079 21.8940773 306.94179535 C18.41149374 306.87569268 14.92893455 306.80842796 11.44638062 306.74078369 C-1.88154853 306.48256697 -15.20956739 306.24350535 -28.53843307 306.03897476 C-30.81605798 306.00291241 -33.09358532 305.96329767 -35.37112427 305.92221069 C-38.88676169 305.86235628 -42.40200423 305.81937977 -45.91796875 305.78515625 C-47.28962692 305.75788956 -47.28962692 305.75788956 -48.68899536 305.73007202 C-57.70679996 305.69065503 -65.92768585 308.19435657 -74.39208984 311.10595703 C-77.9840173 312.33734051 -81.60332349 313.4761648 -85.22363281 314.62084961 C-87.07467794 315.2069922 -88.92429811 315.79765394 -90.77246094 316.39282227 C-96.96234037 318.38336409 -103.17922103 320.23707963 -109.4375 322 C-124.42561255 326.22380747 -139.30057018 330.79769258 -154.125 335.5625 C-162.05594377 338.10961814 -170.02236782 340.47502563 -178.04003906 342.73291016 C-187.43383697 345.38509127 -196.76171353 348.24513032 -206.09277344 351.10888672 C-210.89286837 352.58019563 -215.6966221 354.03945273 -220.5 355.5 C-222.41146618 356.08200546 -224.32292451 356.66403674 -226.234375 357.24609375 C-230.1189701 358.42850535 -234.0044748 359.60786621 -237.890625 360.78515625 C-246.81934623 363.49256059 -255.7375519 366.22231594 -264.625 369.0625 C-271.13525798 371.13904781 -277.67408033 373.07966033 -284.25 374.9375 C-299.29850692 379.18927824 -314.23796371 383.77756986 -329.125 388.5625 C-337.05594377 391.10961814 -345.02236782 393.47502563 -353.04003906 395.73291016 C-362.43383697 398.38509127 -371.76171353 401.24513032 -381.09277344 404.10888672 C-385.89286837 405.58019563 -390.6966221 407.03945273 -395.5 408.5 C-397.41146618 409.08200546 -399.32292451 409.66403674 -401.234375 410.24609375 C-405.1189701 411.42850535 -409.0044748 412.60786621 -412.890625 413.78515625 C-414.843797 414.37744921 -416.79692234 414.96989602 -418.75 415.5625 C-419.70108643 415.85092773 -420.65217285 416.13935547 -421.63208008 416.43652344 C-427.83405505 418.32350164 -434.0136921 420.27311607 -440.1875 422.25 C-447.06295191 424.44816648 -453.95754398 426.39752498 -461 428 C-459.09230366 424.72494787 -457.07714534 421.66176516 -454.76953125 418.65625 C-454.13974365 417.83310303 -453.50995605 417.00995605 -452.86108398 416.16186523 C-451.84703491 414.84424194 -451.84703491 414.84424194 -450.8125 413.5 C-449.36193831 411.60550004 -447.91141864 409.71096789 -446.4609375 407.81640625 C-445.7194043 406.84977051 -444.97787109 405.88313477 -444.21386719 404.88720703 C-440.78069692 400.40985021 -437.35803966 395.92451009 -433.9375 391.4375 C-433.27741943 390.57213623 -432.61733887 389.70677246 -431.93725586 388.81518555 C-427.38401131 382.83832105 -422.87204319 376.83171816 -418.375 370.8125 C-413.0212871 363.64828168 -407.57662185 356.56281146 -402.06689453 349.51806641 C-397.72323253 343.95556372 -393.46962704 338.33120776 -389.24829102 332.67553711 C-385.48985735 327.64240086 -381.67312149 322.65703125 -377.8359375 317.68359375 C-371.51739365 309.48624928 -365.24661458 301.25225098 -359 293 C-358.51595703 292.36094727 -358.03191406 291.72189453 -357.53320312 291.06347656 C-356.38997757 289.54768983 -355.25685957 288.02429263 -354.125 286.5 C-353.26261719 285.33984375 -353.26261719 285.33984375 -352.3828125 284.15625 C-350.90494158 281.85177332 -349.93166395 279.56885982 -349 277 C-341.64904877 276.83935322 -334.49009688 277.32413312 -327.18359375 278.1015625 C-326.04370499 278.21833344 -324.90381622 278.33510437 -323.72938538 278.45541382 C-321.26078802 278.70848481 -318.79240501 278.96365368 -316.32421875 279.22070312 C-309.5806494 279.92216989 -302.83529837 280.60601346 -296.08984375 281.2890625 C-295.3889349 281.36017494 -294.68802605 281.43128738 -293.96587753 281.50455475 C-278.83008108 283.03847693 -263.68296589 284.43790905 -248.53223801 285.81517792 C-226.96929808 287.77622158 -205.41741897 289.8226374 -183.875 292 C-163.33240408 294.07579278 -142.78575069 296.09901192 -122.23148346 298.05535889 C-120.22873575 298.24607327 -118.22603122 298.43724086 -116.22332764 298.62841797 C-107.81658874 299.43028948 -99.40877089 300.21974659 -91 301 C-89.90109436 301.10304443 -88.80218872 301.20608887 -87.66998291 301.31225586 C-84.54734672 301.60374966 -81.42419485 301.88884764 -78.30078125 302.171875 C-76.94898018 302.29915985 -76.94898018 302.29915985 -75.56987 302.42901611 C-69.69881695 302.95112133 -63.89302726 303.09399129 -58 303 C-66.48929639 296.04727716 -75.01247212 289.16999359 -83.73828125 282.515625 C-87.2873045 279.79538975 -90.76811768 276.99282958 -94.25 274.1875 C-99.58289974 269.89327952 -104.98281081 265.7007544 -110.4375 261.5625 C-116.81571961 256.72079872 -123.06223845 251.74227722 -129.25708008 246.66870117 C-134.36135245 242.49581456 -139.55247965 238.45686201 -144.79296875 234.45703125 C-149.98430911 230.4920672 -155.10329566 226.43412666 -160.23388672 222.39111328 C-163.15371048 220.09125763 -166.07701893 217.79584055 -169 215.5 C-170.16668361 214.5833549 -171.33335027 213.66668823 -172.5 212.75 C-173.0775 212.29625 -173.655 211.8425 -174.25 211.375 C-176.875 209.3125 -176.875 209.3125 -179.5 207.25 C-180.07741943 206.79633057 -180.65483887 206.34266113 -181.24975586 205.87524414 C-182.4173041 204.95784991 -183.58478449 204.04036933 -184.75219727 203.12280273 C-187.6548279 200.84155755 -190.55859274 198.56178786 -193.46484375 196.28515625 C-198.81695098 192.08999658 -204.15642325 187.8817142 -209.45507812 183.61914062 C-215.38671411 178.84763534 -221.37336132 174.16461867 -227.4375 169.5625 C-233.81563738 164.7206864 -240.06223421 159.74228069 -246.25708008 154.66870117 C-251.36135245 150.49581456 -256.55247965 146.45686201 -261.79296875 142.45703125 C-266.98430911 138.4920672 -272.10329566 134.43412666 -277.23388672 130.39111328 C-279.57164989 128.54972891 -281.91169601 126.71126001 -284.25195312 124.87304688 C-286.00287577 123.49774115 -287.75339042 122.12191723 -289.50390625 120.74609375 C-291.82280124 118.92396622 -294.14322515 117.10381206 -296.46484375 115.28515625 C-303.1800607 110.02146945 -309.85897481 104.71670891 -316.50195312 99.36206055 C-321.52520837 95.33194362 -326.67486853 91.50266375 -331.90234375 87.7421875 C-332.94068359 86.87980469 -332.94068359 86.87980469 -334 86 C-334 85.34 -334 84.68 -334 84 C-296.17457756 73.94580778 -296.17457756 73.94580778 -281.79711914 70.62011719 C-275.83989198 69.23204936 -269.96572197 67.62383556 -264.08496094 65.9440918 C-257.59841377 64.11468057 -251.05890103 62.54717997 -244.5 61 C-237.29089639 59.29919995 -230.12085023 57.54016966 -223 55.5 C-215.87914743 53.45982967 -208.70909057 51.70085772 -201.5 50 C-194.37440974 48.31860325 -187.28685715 46.58443249 -180.25 44.5625 C-171.12761895 41.9438803 -161.90123926 39.78558308 -152.66992188 37.58837891 C-145.29177764 35.82266096 -137.97414608 33.93857789 -130.68359375 31.84375 C-123.25857631 29.73609199 -115.74808095 28.00225974 -108.23730469 26.23022461 C-102.11829432 24.77688975 -96.04576696 23.23215135 -90 21.5 C-81.80515727 19.15212454 -73.53397073 17.18765537 -65.23828125 15.23046875 C-58.41227762 13.60918896 -51.6558625 11.83608221 -44.91308594 9.90112305 C-37.16883994 7.70797653 -29.33734691 5.88214579 -21.5 4.0546875 C-15.53797978 2.66101562 -15.53797978 2.66101562 -9.703125 0.82421875 C-6.07197367 -0.28296757 -3.78561766 -0.62481068 0 0 Z " fill="#656565" transform="translate(498,30)"/>
<path d="M0 0 C3.01167642 2.18218604 5.43520722 4.8237321 7.9375 7.5625 C9.27735043 8.98292339 10.61979279 10.40090645 11.96484375 11.81640625 C12.62919434 12.51975098 13.29354492 13.2230957 13.97802734 13.94775391 C16.55806471 16.56642018 19.3049648 18.94248788 22.09594727 21.33178711 C25.04233521 23.91322945 27.76376615 26.69958288 30.5 29.5 C33.90842744 32.95132527 37.2964945 36.36143602 41 39.5 C45.32418706 43.1645653 49.24082291 47.21520866 53.22265625 51.2421875 C56.06641577 54.10574117 58.91875084 56.8887719 62 59.5 C66.32261082 63.16322951 70.23793677 67.2122242 74.21826172 71.23779297 C77.10444621 74.14410778 80.00459491 76.96687715 83.125 79.625 C86.48652124 82.53108933 89.81547925 85.46636956 93.0625 88.5 C94.02285156 89.3765625 94.98320313 90.253125 95.97265625 91.15625 C98 94 98 94 98.16796875 97.35546875 C96.67300287 102.02036228 94.33311175 105.06376163 91.25 108.8125 C90.05110134 110.32240796 88.85455439 111.8341857 87.66015625 113.34765625 C87.0480127 114.11867676 86.43586914 114.88969727 85.80517578 115.68408203 C82.9902589 119.29542928 80.34069126 123.01911818 77.6875 126.75 C72.85194307 133.5135508 67.87187566 140.15238467 62.8125 146.75 C57.95491629 153.08505822 53.17680961 159.45280349 48.57641602 165.97680664 C45.54196466 170.27112826 42.41475067 174.48841618 39.25 178.6875 C34.84092667 184.53780963 30.46697487 190.41219233 26.125 196.3125 C25.53936279 197.10817383 24.95372559 197.90384766 24.3503418 198.72363281 C21.98484161 201.93892607 19.62065671 205.15518344 17.25732422 208.37207031 C10.09099716 218.12539492 2.88025354 227.84252723 -4.39208984 237.51708984 C-10.9885108 246.30035846 -17.49658523 255.14777557 -24 264 C-30.84532746 273.3138567 -37.6953314 282.62362383 -44.625 291.875 C-45.10984863 292.52299561 -45.59469727 293.17099121 -46.09423828 293.83862305 C-48.67312763 297.27334657 -51.29632995 300.66166562 -54 304 C-58.49286331 302.51911209 -61.81629766 300.01018014 -65.4375 297.0625 C-66.687355 296.06231877 -67.93735912 295.06232388 -69.1875 294.0625 C-69.82171875 293.55203125 -70.4559375 293.0415625 -71.109375 292.515625 C-74.03223125 290.17250884 -76.98622212 287.86962648 -79.9375 285.5625 C-84.13146562 282.27427619 -88.30263538 278.95962858 -92.45507812 275.61914062 C-98.38671411 270.84763534 -104.37336132 266.16461867 -110.4375 261.5625 C-116.81563738 256.7206864 -123.06223421 251.74228069 -129.25708008 246.66870117 C-134.36135245 242.49581456 -139.55247965 238.45686201 -144.79296875 234.45703125 C-149.98430911 230.4920672 -155.10329566 226.43412666 -160.23388672 222.39111328 C-163.15371048 220.09125763 -166.07701893 217.79584055 -169 215.5 C-170.16668361 214.5833549 -171.33335027 213.66668823 -172.5 212.75 C-173.0775 212.29625 -173.655 211.8425 -174.25 211.375 C-176 210 -177.75 208.625 -179.5 207.25 C-180.07741943 206.79633057 -180.65483887 206.34266113 -181.24975586 205.87524414 C-182.4173041 204.95784991 -183.58478449 204.04036933 -184.75219727 203.12280273 C-187.6548279 200.84155755 -190.55859274 198.56178786 -193.46484375 196.28515625 C-198.81695098 192.08999658 -204.15642325 187.8817142 -209.45507812 183.61914062 C-215.38671411 178.84763534 -221.37336132 174.16461867 -227.4375 169.5625 C-233.81563738 164.7206864 -240.06223421 159.74228069 -246.25708008 154.66870117 C-251.36135245 150.49581456 -256.55247965 146.45686201 -261.79296875 142.45703125 C-266.98430911 138.4920672 -272.10329566 134.43412666 -277.23388672 130.39111328 C-279.57164989 128.54972891 -281.91169601 126.71126001 -284.25195312 124.87304688 C-286.00287577 123.49774115 -287.75339042 122.12191723 -289.50390625 120.74609375 C-291.82280124 118.92396622 -294.14322515 117.10381206 -296.46484375 115.28515625 C-303.1800607 110.02146945 -309.85897481 104.71670891 -316.50195312 99.36206055 C-321.52520837 95.33194362 -326.67486853 91.50266375 -331.90234375 87.7421875 C-332.94068359 86.87980469 -332.94068359 86.87980469 -334 86 C-334 85.34 -334 84.68 -334 84 C-296.17457756 73.94580778 -296.17457756 73.94580778 -281.79711914 70.62011719 C-275.83989198 69.23204936 -269.96572197 67.62383556 -264.08496094 65.9440918 C-257.59841377 64.11468057 -251.05890103 62.54717997 -244.5 61 C-237.29089639 59.29919995 -230.12085023 57.54016966 -223 55.5 C-215.87914743 53.45982967 -208.70909057 51.70085772 -201.5 50 C-194.37440974 48.31860325 -187.28685715 46.58443249 -180.25 44.5625 C-171.12761895 41.9438803 -161.90123926 39.78558308 -152.66992188 37.58837891 C-145.29177764 35.82266096 -137.97414608 33.93857789 -130.68359375 31.84375 C-123.25857631 29.73609199 -115.74808095 28.00225974 -108.23730469 26.23022461 C-102.11829432 24.77688975 -96.04576696 23.23215135 -90 21.5 C-81.80515727 19.15212454 -73.53397073 17.18765537 -65.23828125 15.23046875 C-58.41227762 13.60918896 -51.6558625 11.83608221 -44.91308594 9.90112305 C-37.16883994 7.70797653 -29.33734691 5.88214579 -21.5 4.0546875 C-15.53797978 2.66101562 -15.53797978 2.66101562 -9.703125 0.82421875 C-6.07197367 -0.28296757 -3.78561766 -0.62481068 0 0 Z " fill="#989898" transform="translate(498,30)"/>
<path d="M0 0 C4.96791729 1.12685583 9.93538766 2.25563354 14.90234375 3.38671875 C19.27482628 4.38202482 23.64843307 5.37212565 28.0231781 6.35742188 C43.89758755 9.9353498 59.72853727 13.63016534 75.50152588 17.63293457 C85.64951429 20.20547125 95.83036494 22.55916336 106.06054688 24.78173828 C115.26718325 26.79722306 124.39570338 29.07566507 133.52929688 31.39697266 C141.40822653 33.38639146 149.30928262 35.21247993 157.25 36.9375 C167.21704583 39.10424909 177.11481426 41.49157002 187 44 C196.80212291 46.48729963 206.61573754 48.85585725 216.5 51 C226.38427472 53.14414541 236.19780541 55.51295669 246 58 C256.11587173 60.56592397 266.24367892 63.00722951 276.4375 65.25 C277.54826904 65.49854736 278.65903809 65.74709473 279.8034668 66.00317383 C284.5109768 67.0499581 289.2069708 68.05860826 293.9609375 68.87109375 C304.17620722 70.71372152 310.6364354 74.68566454 318.29833984 81.51220703 C321.1027125 83.96412195 324.05515005 86.22065749 327 88.5 C328.16740631 89.41572452 329.33407342 90.33239219 330.5 91.25 C331.36625 91.930625 331.36625 91.930625 332.25 92.625 C348 105 363.75 117.375 379.5 129.75 C380.07741943 130.20366943 380.65483887 130.65733887 381.24975586 131.12475586 C382.4173041 132.04215009 383.58478449 132.95963067 384.75219727 133.87719727 C387.6548279 136.15844245 390.55859274 138.43821214 393.46484375 140.71484375 C398.81695098 144.91000342 404.15642325 149.1182858 409.45507812 153.38085938 C415.38671351 158.15236418 421.37334995 162.83539728 427.4375 167.4375 C433.72461783 172.20998428 439.87841971 177.11828174 445.98022461 182.12475586 C450.7451229 186.01916076 455.5953639 189.78355443 460.5 193.5 C466.76846285 198.24987349 472.9007704 203.13652956 478.98046875 208.125 C483.74533052 212.01926816 488.59546292 215.78361216 493.5 219.5 C499.85954296 224.31909125 506.08461518 229.27595762 512.25732422 234.33154297 C517.34359821 238.48960034 522.51532728 242.51561353 527.73828125 246.5 C533.54369004 250.93341691 539.26442218 255.47689065 545 260 C543.46364623 263.07270755 541.12460316 263.20776918 537.9296875 264.3203125 C537.30536835 264.53994659 536.68104919 264.75958069 536.03781128 264.98587036 C533.98588773 265.70583189 531.93052477 266.41539267 529.875 267.125 C528.45452232 267.62141183 527.03427619 268.11848675 525.61425781 268.61621094 C521.41263837 270.08656257 517.20667714 271.54419494 513 273 C510.83068213 273.75246857 508.66140638 274.50505861 506.4921875 275.2578125 C503.6427403 276.24655122 500.79321758 277.23504787 497.94287109 278.22119141 C491.32976375 280.51591962 484.7598206 282.91364643 478.20019531 285.35644531 C471.01957285 288.0193977 463.7858158 290.52037312 456.546875 293.01953125 C449.73653945 295.37765546 442.96938231 297.83437388 436.21630859 300.35107422 C428.90644343 303.06282323 421.54255968 305.61201224 414.16674805 308.13818359 C407.8100052 310.32695219 401.59127949 312.69635725 395.42578125 315.3828125 C393 316 393 316 390.984375 315.37109375 C388.52542038 313.67209164 386.23233163 311.8538027 383.9375 309.9375 C382.96425781 309.12925781 381.99101562 308.32101562 380.98828125 307.48828125 C380.00214844 306.66714844 379.01601563 305.84601563 378 305 C376.20951061 303.54022149 374.41786157 302.08186408 372.625 300.625 C367.98562969 296.83155476 363.40826334 292.97005533 358.84082031 289.09082031 C353.61552812 284.6594004 348.31644115 280.32155158 343 276 C337.11991588 271.2202825 331.27559389 266.40526403 325.5 261.5 C320.73078305 257.44999489 315.92087884 253.45648144 311.0703125 249.50390625 C301.48848079 241.68971525 291.94429692 233.83306826 282.52294922 225.82592773 C278.41143408 222.33583103 274.25098691 218.91060741 270.0703125 215.50390625 C266.24780315 212.3865672 262.43525091 209.25730181 258.625 206.125 C257.53312378 205.23047119 257.53312378 205.23047119 256.41918945 204.31787109 C253.00378465 201.51163888 249.61615444 198.68577512 246.30078125 195.76171875 C245.72956543 195.2620459 245.15834961 194.76237305 244.56982422 194.24755859 C243.04786902 192.90953097 241.53714443 191.55875884 240.02734375 190.20703125 C233.59186693 185.51536105 225.80809126 184.05068849 218.1875 182.125 C216.12885091 181.59656969 214.07025791 181.06792086 212.01171875 180.5390625 C210.99384277 180.27899414 209.9759668 180.01892578 208.92724609 179.75097656 C204.77961413 178.68691352 200.63959792 177.59482115 196.5 176.5 C189.50305424 174.65489714 182.50229349 172.82469623 175.5 171 C166.09983073 168.55018806 156.70384443 166.08490249 147.31054688 163.60888672 C143.37398397 162.57150423 139.43696569 161.53585261 135.5 160.5 C133.91666456 160.08334134 132.33333122 159.66667468 130.75 159.25 C129.96625 159.04375 129.1825 158.8375 128.375 158.625 C119.66666667 156.33333333 110.95833333 154.04166667 102.25 151.75 C101.46560547 151.54511963 100.68121094 151.34023926 99.87304688 151.12915039 C98.29309749 150.71026875 96.71618071 150.27977405 95.14257812 149.83764648 C91.08033221 148.71246485 87.15748507 147.8469703 82.96875 147.34765625 C71.31088244 145.69362235 71.31088244 145.69362235 67.28125 140.99658203 C63.87758823 135.66425095 61.53576166 129.87598917 59.21533203 124.00976562 C57.33757423 119.35950485 55.13243293 114.88180902 52.9375 110.375 C52.02985225 108.46619132 51.12230552 106.5573346 50.21484375 104.6484375 C46.24576644 96.38134673 42.1152253 88.19497451 38 80 C32.63082354 69.30776271 27.31476513 58.60123584 22.21337891 47.77783203 C19.41974079 41.88277301 16.52837382 36.04250521 13.58984375 30.21875 C13.00827766 29.06447006 13.00827766 29.06447006 12.41496277 27.88687134 C10.47541826 24.03937467 8.52894265 20.19562075 6.57202148 16.35693359 C5.85769377 14.94379426 5.14357294 13.53055032 4.4296875 12.1171875 C4.09795029 11.47237427 3.76621307 10.82756104 3.42442322 10.16320801 C1.73105015 6.79540285 0.52021586 3.7428864 0 0 Z " fill="#1B1B1B" transform="translate(32,469)"/>
<path d="M0 0 C0.33 0.66 0.66 1.32 1 2 C1.82564453 2.40605469 1.82564453 2.40605469 2.66796875 2.8203125 C5.8643047 4.43721946 8.52964719 6.64638412 11.3125 8.875 C11.92569092 9.3611377 12.53888184 9.84727539 13.1706543 10.34814453 C16.342036 12.86608552 19.50018411 15.40040393 22.65625 17.9375 C23.87491203 18.91677615 25.09366273 19.89594197 26.3125 20.875 C26.9297998 21.3712085 27.54709961 21.86741699 28.18310547 22.37866211 C32.8793874 26.13918245 37.64513959 29.80054304 42.4375 33.4375 C48.81563738 38.2793136 55.06223421 43.25771931 61.25708008 48.33129883 C66.36135245 52.50418544 71.55247965 56.54313799 76.79296875 60.54296875 C81.98430911 64.5079328 87.10329566 68.56587334 92.23388672 72.60888672 C94.57164989 74.45027109 96.91169601 76.28873999 99.25195312 78.12695312 C101.00287577 79.50225885 102.75339042 80.87808277 104.50390625 82.25390625 C106.82280124 84.07603378 109.14322515 85.89618794 111.46484375 87.71484375 C116.81695098 91.91000342 122.15642325 96.1182858 127.45507812 100.38085938 C133.38671411 105.15236466 139.37336132 109.83538133 145.4375 114.4375 C151.81563738 119.2793136 158.06223421 124.25771931 164.25708008 129.33129883 C169.36135245 133.50418544 174.55247965 137.54313799 179.79296875 141.54296875 C184.98430911 145.5079328 190.10329566 149.56587334 195.23388672 153.60888672 C198.15371048 155.90874237 201.07701893 158.20415945 204 160.5 C205.16668361 161.4166451 206.33335027 162.33331177 207.5 163.25 C208.0775 163.70375 208.655 164.1575 209.25 164.625 C211 166 212.75 167.375 214.5 168.75 C215.07741943 169.20366943 215.65483887 169.65733887 216.24975586 170.12475586 C217.4173041 171.04215009 218.58478449 171.95963067 219.75219727 172.87719727 C222.6548279 175.15844245 225.55859274 177.43821214 228.46484375 179.71484375 C234.44254002 184.40036092 240.39449517 189.11427313 246.3125 193.875 C252.49379126 198.84625321 258.76907722 203.68498345 265.1027832 208.46044922 C274.11657164 215.28798859 274.11657164 215.28798859 278 219 C278 219.33 278 219.66 278 220 C269.86889059 220.16208446 261.90787959 219.67134711 253.81640625 218.8984375 C252.5532811 218.78166656 251.29015594 218.66489563 249.98875427 218.54458618 C246.56120457 218.2273114 243.13430912 217.90343331 239.70751953 217.57806396 C236.80711448 217.30348943 233.90634967 217.03281811 231.00559425 216.76197433 C210.09231687 214.80791681 189.19105058 212.74101639 168.2935791 210.62463379 C149.14228092 208.68612656 129.98233776 206.87008917 110.8125 205.125 C84.88390805 202.76407293 58.97128157 200.2565407 33.0625 197.6875 C32.16589787 197.59860756 31.26929573 197.50971512 30.34552383 197.41812897 C15.56301001 195.95215583 0.78120433 194.47911922 -14 193 C-13.17402315 178.53718334 -12.25458383 164.08067741 -11.3125 149.625 C-11.22929504 148.34663269 -11.14609009 147.06826538 -11.06036377 145.75115967 C-9.27595159 118.40042906 -7.30195636 91.06364958 -5.29605961 63.72837639 C-5.04663112 60.3282861 -4.79783745 56.92814959 -4.54927254 53.52799606 C-4.42862913 51.87891261 -4.30774567 50.2298467 -4.18661308 48.5807991 C-3.55312425 39.94655743 -2.94448727 31.31195788 -2.41113281 22.67089844 C-2.36546488 21.93589552 -2.31979694 21.2008926 -2.27274513 20.44361687 C-2.05917336 16.99350296 -1.85112589 13.54320357 -1.65255737 10.0921936 C-1.58046051 8.90209686 -1.50836365 7.71200012 -1.43408203 6.48583984 C-1.37382843 5.44454926 -1.31357483 4.40325867 -1.25149536 3.33041382 C-1 1 -1 1 0 0 Z " fill="#333333" transform="translate(163,114)"/>
<path d="M0 0 C7.35095123 -0.16064678 14.50990312 0.32413312 21.81640625 1.1015625 C23.5262394 1.2767189 23.5262394 1.2767189 25.27061462 1.45541382 C27.73921198 1.70848481 30.20759499 1.96365368 32.67578125 2.22070312 C39.4193506 2.92216989 46.16470163 3.60601346 52.91015625 4.2890625 C53.96151953 4.39573116 53.96151953 4.39573116 55.03412247 4.50455475 C70.16991892 6.03847693 85.31703411 7.43790905 100.46776199 8.81517792 C123.25846485 10.8878806 146.03537117 13.07002575 168.80429077 15.37197876 C192.40791906 17.75760718 216.02125617 20.0277261 239.63989258 22.25881958 C242.05943044 22.48792537 244.47886637 22.7181104 246.89819336 22.94943237 C252.75332397 23.50867749 258.60896927 24.05745314 264.46784306 24.57589626 C267.35663958 24.8327204 270.24478104 25.09648581 273.132864 25.36120033 C274.5220003 25.48675007 275.91143006 25.60909735 277.30114174 25.72810936 C279.22385538 25.8930487 281.14553654 26.0698941 283.06713867 26.24731445 C284.71609383 26.39327812 284.71609383 26.39327812 286.39836121 26.54219055 C289 27 289 27 291 29 C283.42793365 31.88610501 275.8203418 34.26366734 268 36.375 C257.2443574 39.33315965 246.61229183 42.56835744 236 46 C225.41747608 49.40630565 214.81268375 52.66128493 204.11328125 55.68188477 C194.66997957 58.35639233 185.28965596 61.22936472 175.90722656 64.10888672 C171.10713163 65.58019563 166.3033779 67.03945273 161.5 68.5 C159.58853382 69.08200546 157.67707549 69.66403674 155.765625 70.24609375 C151.8810299 71.42850535 147.9955252 72.60786621 144.109375 73.78515625 C142.15619225 74.37741376 140.20306701 74.96986093 138.25 75.5625 C137.28513672 75.85527832 136.32027344 76.14805664 135.32617188 76.44970703 C130.27694465 77.98661491 125.23937498 79.55337537 120.21362305 81.1652832 C110.50289598 84.27867061 100.72270186 87.13226232 90.92440796 89.95492554 C79.55653231 93.23173381 68.24090339 96.65792727 56.94140625 100.1640625 C51.55521161 101.83453585 46.15561603 103.45619528 40.75 105.0625 C33.82527267 107.12216607 26.93958908 109.28677401 20.0625 111.5 C12.06928089 114.06862324 4.04177409 116.45704218 -4.03930664 118.73266602 C-13.43331808 121.3850413 -22.76146552 124.2450542 -32.09277344 127.10888672 C-36.89286837 128.58019563 -41.6966221 130.03945273 -46.5 131.5 C-48.41146618 132.08200546 -50.32292451 132.66403674 -52.234375 133.24609375 C-56.1189701 134.42850535 -60.0044748 135.60786621 -63.890625 136.78515625 C-65.843797 137.37744921 -67.79692234 137.96989602 -69.75 138.5625 C-70.70108643 138.85092773 -71.65217285 139.13935547 -72.63208008 139.43652344 C-78.83405505 141.32350164 -85.0136921 143.27311607 -91.1875 145.25 C-98.06295191 147.44816648 -104.95754398 149.39752498 -112 151 C-110.09230366 147.72494787 -108.07714534 144.66176516 -105.76953125 141.65625 C-104.82484985 140.42152954 -104.82484985 140.42152954 -103.86108398 139.16186523 C-102.84703491 137.84424194 -102.84703491 137.84424194 -101.8125 136.5 C-100.36193831 134.60550004 -98.91141864 132.71096789 -97.4609375 130.81640625 C-96.7194043 129.84977051 -95.97787109 128.88313477 -95.21386719 127.88720703 C-91.78069692 123.40985021 -88.35803966 118.92451009 -84.9375 114.4375 C-84.27741943 113.57213623 -83.61733887 112.70677246 -82.93725586 111.81518555 C-78.38401131 105.83832105 -73.87204319 99.83171816 -69.375 93.8125 C-64.0212871 86.64828168 -58.57662185 79.56281146 -53.06689453 72.51806641 C-48.72323253 66.95556372 -44.46962704 61.33120776 -40.24829102 55.67553711 C-36.48985735 50.64240086 -32.67312149 45.65703125 -28.8359375 40.68359375 C-22.51739365 32.48624928 -16.24661458 24.25225098 -10 16 C-9.51595703 15.36094727 -9.03191406 14.72189453 -8.53320312 14.06347656 C-7.38997757 12.54768983 -6.25685957 11.02429263 -5.125 9.5 C-4.26261719 8.33984375 -4.26261719 8.33984375 -3.3828125 7.15625 C-1.90494158 4.85177332 -0.93166395 2.56885982 0 0 Z " fill="#989898" transform="translate(149,307)"/>
<path d="M0 0 C1.56469727 1.1640625 1.56469727 1.1640625 3.06640625 2.625 C3.62851807 3.1619751 4.19062988 3.6989502 4.76977539 4.25219727 C5.36137451 4.82897217 5.95297363 5.40574707 6.5625 6 C10.78039537 10.02077186 15.00465384 13.92292579 19.5625 17.5625 C24.94972087 21.87704415 29.97067961 26.52371102 35.015625 31.2265625 C39.63353761 35.53105514 44.40761607 39.64312405 49.2109375 43.73828125 C55.75655431 49.32318933 62.22039507 54.96553961 68.56640625 60.77734375 C73.037065 64.86049757 77.61141889 68.81842379 82.21875 72.74609375 C88.76251142 78.32756386 95.22308967 83.96800738 101.56640625 89.77734375 C106.037065 93.86049757 110.61141889 97.81842379 115.21875 101.74609375 C121.76251142 107.32756386 128.22308967 112.96800738 134.56640625 118.77734375 C139.12384932 122.93975965 143.78352555 126.97625686 148.5 130.95703125 C149.12672607 131.48828613 149.75345215 132.01954102 150.39916992 132.56689453 C151.65141821 133.62755858 152.90668245 134.68467467 154.1652832 135.73779297 C154.74624756 136.23037598 155.32721191 136.72295898 155.92578125 137.23046875 C156.44567627 137.66770264 156.96557129 138.10493652 157.5012207 138.55541992 C159.23419683 140.22572775 160.57474266 142.06457894 162 144 C138.08778251 146.71065837 114.16280435 149.24723892 90.21517181 151.62392044 C87.62916286 151.88079476 85.04323867 152.13850763 82.45733643 152.39645386 C57.10598253 154.92480073 31.74859549 157.3803571 6.38354492 159.76757812 C-7.81951664 161.10737333 -22.01699672 162.49309014 -36.2109375 163.92578125 C-37.0187479 164.00721186 -37.8265583 164.08864246 -38.65884781 164.17254066 C-46.59116749 164.9721575 -54.52322326 165.77417789 -62.45423317 166.58669186 C-65.35881746 166.8836332 -68.26367505 167.17783523 -71.16859818 167.47144127 C-73.16013204 167.67373332 -75.15128584 167.87975609 -77.14242554 168.08589172 C-82.78715689 168.65511092 -88.32539138 169.17746278 -94 169 C-92.50174063 163.9344564 -90.31033648 159.55704699 -87.8125 154.9375 C-86.90901442 153.24409829 -86.00675164 151.55004383 -85.10546875 149.85546875 C-84.61095215 148.92653809 -84.11643555 147.99760742 -83.60693359 147.04052734 C-80.57212202 141.29826917 -77.60276188 135.52197406 -74.625 129.75 C-73.32599689 127.23412892 -72.02643753 124.71854568 -70.7265625 122.203125 C-70.40819931 121.58703873 -70.08983612 120.97095245 -69.76182556 120.3361969 C-66.85619328 114.7162849 -63.93086377 109.10678322 -61 103.5 C-56.47650439 94.84542318 -51.98261184 86.17579498 -47.5 77.5 C-42.5208528 67.86343752 -37.52405823 58.23640065 -32.49926758 48.62353516 C-29.78638665 43.43125708 -27.08284419 38.23427091 -24.390625 33.03125 C-23.92826195 32.13800522 -23.92826195 32.13800522 -23.45655823 31.22671509 C-21.96372945 28.34244008 -20.47201299 25.45759996 -18.98217773 22.57177734 C-17.88729324 20.45552733 -16.78832901 18.34138247 -15.68505859 16.22949219 C-14.48952953 13.93820583 -13.30645222 11.64247454 -12.13134766 9.34082031 C-11.5112114 8.14624068 -10.89061858 6.95189793 -10.26953125 5.7578125 C-9.43772339 4.13963623 -9.43772339 4.13963623 -8.58911133 2.48876953 C-6.20450087 -1.24586237 -3.93956836 -1.42820751 0 0 Z " fill="#989898" transform="translate(798,171)"/>
<path d="M0 0 C0.09498779 0.74150803 0.18997559 1.48301605 0.2878418 2.24699402 C1.5238564 11.89400547 2.76145409 21.54081323 4 31.1875 C4.10063625 31.97140358 4.20127251 32.75530716 4.30495834 33.56296539 C7.10721099 55.38847331 9.93486822 77.21041256 12.80615234 99.02694702 C17.68187922 136.08064933 17.68187922 136.08064933 19.24301147 148.35943604 C19.48774478 150.27888217 19.7365628 152.19780619 19.9855957 154.11669922 C20.65711318 159.45532163 21.18610277 164.61852837 21 170 C17.04900238 171.19607884 13.00198929 171.42543634 8.91015625 171.76171875 C7.19009742 171.90942667 5.47004572 172.05721761 3.75 172.20507812 C2.82832031 172.28314697 1.90664063 172.36121582 0.95703125 172.44165039 C-18.87900984 174.12644234 -38.69081708 176.02666492 -58.5 178 C-79.21138108 180.05980429 -99.92734766 182.01621348 -120.66184998 183.82737732 C-121.53527542 183.90367874 -122.40870087 183.97998016 -123.30859375 184.05859375 C-124.17488907 184.13421036 -125.04118439 184.20982697 -125.93373108 184.28773499 C-136.52189399 185.21543467 -147.1047344 186.20042767 -157.6875 187.1875 C-158.59904846 187.27235657 -159.51059692 187.35721313 -160.44976807 187.44464111 C-169.30266238 188.26916648 -178.15457985 189.09814975 -187 190 C-182.32556482 184.37733158 -177.32418085 179.20780078 -172.12890625 174.06640625 C-171.2883519 173.22963852 -170.44779755 172.39287079 -169.58177185 171.53074646 C-166.01199888 167.97720736 -162.43629335 164.42965994 -158.86108398 160.8815918 C-156.23993606 158.27862137 -153.62186442 155.67258416 -151.00390625 153.06640625 C-149.80671715 151.88166466 -149.80671715 151.88166466 -148.58534241 150.67298889 C-145.13507699 147.2377015 -141.76427048 143.78971048 -138.59350586 140.09350586 C-134.60663116 135.46249561 -130.29308561 131.17973987 -125.95483398 126.87966919 C-124.46285757 125.40068091 -122.97422447 123.91839498 -121.48632812 122.43530273 C-117.79331846 118.75552613 -114.09482888 115.08127373 -110.39648438 111.40686035 C-107.25929696 108.28954371 -104.12426398 105.17008912 -100.99194336 102.04788208 C-99.53902092 100.60134931 -98.08307719 99.15790833 -96.62695312 97.71459961 C-92.80490227 93.9066105 -89.02683794 90.11050981 -85.51367188 86.01367188 C-81.50249077 81.3385752 -77.14227075 77.02949053 -72.76963806 72.69447327 C-71.24406023 71.18187668 -69.72181914 69.66598798 -68.20031738 68.14929199 C-64.42383018 64.38604199 -60.64186489 60.62831332 -56.86004639 56.87042236 C-53.65240132 53.68264332 -50.44690705 50.49272958 -47.24412537 47.30006409 C-45.75796311 45.82029444 -44.26878004 44.34361435 -42.77941895 42.86706543 C-38.20957282 38.31366553 -33.78683216 33.71553706 -29.58843994 28.81774902 C-27.00076144 25.85651017 -24.23013533 23.08709816 -21.4453125 20.3125 C-20.56478714 19.43053955 -20.56478714 19.43053955 -19.66647339 18.53076172 C-18.44261238 17.3062274 -17.21751667 16.08292589 -15.99121094 14.86083984 C-14.10493178 12.97998953 -12.22414333 11.09376408 -10.34375 9.20703125 C-9.14875861 8.01269946 -7.95345769 6.81867727 -6.7578125 5.625 C-5.91260544 4.77675659 -5.91260544 4.77675659 -5.05032349 3.91137695 C-1.11499402 0 -1.11499402 0 0 0 Z " fill="#1B1B1B" transform="translate(792,535)"/>
<path d="M0 0 C2.22073069 3.33109603 3.93235067 6.81008447 5.67578125 10.40234375 C6.03752441 11.14401794 6.39926758 11.88569214 6.77197266 12.64984131 C7.9547768 15.07779202 9.13387125 17.50751992 10.3125 19.9375 C10.71439545 20.76424225 11.11629089 21.5909845 11.53036499 22.44277954 C17.43079628 34.58447239 23.22190228 46.77076303 28.85083008 59.04077148 C31.78135156 65.42436408 34.81167028 71.74091076 38 78 C37.33572998 78.41540039 36.67145996 78.83080078 35.98706055 79.25878906 C29.13115947 83.57922554 22.44436491 88.09454869 15.8125 92.75 C13.77758694 94.17222303 11.74243007 95.59409726 9.70703125 97.015625 C8.2367749 98.04333008 8.2367749 98.04333008 6.73681641 99.09179688 C3.16985117 101.57880849 -0.412344 104.04297343 -4 106.5 C-10.5210307 110.96990278 -17.01255798 115.48150925 -23.5 120 C-30.60545183 124.94893338 -37.72131678 129.88128005 -44.86328125 134.77734375 C-50.76066835 138.82504121 -56.63054665 142.91193716 -62.5 147 C-69.60545183 151.94893338 -76.72131678 156.88128005 -83.86328125 161.77734375 C-90.76715589 166.51584834 -97.63417444 171.30720706 -104.50512695 176.09326172 C-110.05321342 179.95595231 -115.61070526 183.80388948 -121.1875 187.625 C-130.50803042 194.01197212 -139.75238203 200.5081151 -149 207 C-149.66 206.67 -150.32 206.34 -151 206 C-150.14322917 204.83723958 -149.28645833 203.67447917 -148.4296875 202.51171875 C-147.87031494 201.7525415 -147.31094238 200.99336426 -146.73461914 200.21118164 C-145.47610345 198.50325507 -144.2174739 196.79541241 -142.95874023 195.08764648 C-139.79671988 190.79731259 -136.63607407 186.50599249 -133.48046875 182.2109375 C-126.90442195 173.26484814 -120.27935418 164.35808279 -113.60791016 155.48291016 C-107.01149632 146.69965101 -100.50275212 137.85270207 -94 129 C-86.25412132 118.4549331 -78.46983746 107.94180957 -70.60791016 97.48291016 C-64.0114892 88.69964154 -57.50341477 79.85222443 -51 71 C-44.3667861 61.97474825 -37.73283581 52.9513052 -31 44 C-24.26854256 35.04765789 -17.61039064 26.04209102 -11 17 C-10.48002441 16.28875977 -9.96004883 15.57751953 -9.42431641 14.84472656 C-8.00680633 12.90021127 -6.59564976 10.95130064 -5.1875 9 C-4.77290527 8.43071777 -4.35831055 7.86143555 -3.93115234 7.27490234 C-2.18831495 4.84420119 -0.95364364 2.86093091 0 0 Z " fill="#333333" transform="translate(596,126)"/>
</svg>
